<?xml version="1.0" encoding="utf-8"?>
<!DOCTYPE svg PUBLIC "-//W3C//DTD SVG 1.1//EN" "http://www.w3.org/Graphics/SVG/1.1/DTD/svg11.dtd">
<svg viewBox="0 0 800 800" preserveAspectRatio="xMinYMin meet" xmlns="http://www.w3.org/2000/svg" version="1.1">
<g fill="none" stroke="black" stroke-linecap="round" stroke-linejoin="round" stroke-width="1.8481">
<g transform="translate(87.52,135.4065) scale(1.6233) translate(0,-60)">
<path id="0" d="M167 268 C167 268 169.3665 263.4813 172 262 C175.9896 259.7559 177.6387 259.2365 183 259 C210.4512 257.7889 216.727 256.0078 240 259 C245.7803 259.7432 247.6027 262.8186 253 268 C259.5845 274.3211 265 283 265 283 "/>
<path id="1" d="M171 264 C171 264 156.0157 299.1415 149 333 C144.9744 352.4277 146.294 356.9169 148 375 C148.4708 379.991 151.6471 385.2605 154 386 C161.2152 388.2676 172.6028 390.1283 183 386 C200.8261 378.922 205.9707 374.266 222 359 C235.7293 345.9245 235.8428 342.9286 246 326 C251.8714 316.2143 249.7558 314.4885 255 304 C260.64 292.72 268 282 268 282 "/>
<path id="2" d="M168 272 C168 272 160.9498 264.5774 153 261 C132.199 251.6395 129.7177 254.1277 108 245 C95.629 239.8006 95.7243 238.9193 84 232 C65.2787 220.9514 64.6471 221.4706 47 209 C27.3822 195.1368 9 179 9 179 "/>
<path id="3" d="M265 285 C265 285 303.1521 288.1837 337 286 C347.0936 285.3488 348.4805 283.6377 358 279 C367.2995 274.4695 376 267 376 267 "/>
<path id="4" d="M9 179 C9 179 15.6548 175.6508 22 175 C34.3021 173.7382 48 175 48 175 "/>
<path id="5" d="M10 180 C10 180 18.6213 174.539 27 173 C41.8311 170.2759 43.033 171.0854 59 171 C136.3115 170.5866 214 172 214 172 "/>
<path id="6" d="M204 173 C204 173 233.5843 170.2715 261 174 C294.6727 178.5795 329 190 329 190 "/>
<path id="7" d="M204 172 L208 170 "/>
<path id="8" d="M216 170 C216 170 214.0036 159.8194 216 152 C219.5563 138.0711 223.9813 137.3523 228 123 C230.6774 113.4377 227.8478 111.5311 230 102 C231.1166 97.0553 233.5993 97.0024 235 92 C236.9118 85.1721 235.2151 84.1396 237 77 C239.1304 68.4785 241.0078 63.3867 243 60 C243.2283 59.6118 245.4413 59.3938 247 60 C253.5162 62.5341 254.8232 62.7998 261 67 C266.8607 70.9853 268.3248 71.4873 272 77 C277.5127 85.2691 278.5064 86.8788 281 97 C286.7209 120.2201 286.1187 121.5092 289 146 C291.0905 163.7695 291 182 291 182 "/>
<path id="9" d="M328 188 C328 188 347.2307 189.8131 357 194 C360.0502 195.3072 362.3571 198.9281 363 203 C364.8744 214.871 359.8024 225.9092 363 232 C365.4286 236.6258 378.8435 238.3123 384 243 C385.5273 244.3884 386.3245 249.7295 385 252 C378.7317 262.7457 363 279 363 279 "/>
<path id="10" d="M15 180 C15 180 13.1402 153.2184 16 128 C18.5317 105.6751 25.7292 83.2483 26 83 C26.0374 82.9657 34.5389 94.2587 40 106 C44.2174 115.0673 41.8063 116.7449 46 126 C56.0459 148.1703 69 170 69 170 "/>
<path id="11" d="M15 186 C15 186 11.2131 190.9051 10 196 C3.9966 221.2144 -0.43015 246.9353 0 249 C0.0070401 249.0338 11.4221 248.289 20 244 C40.9682 233.5159 62 218 62 218 "/>
<path id="12" d="M114 205 C114 205 114.027 207.9933 114 208 C113.8742 208.0315 110.3161 206.5269 110 206 C109.8276 205.7126 110.7187 203.0563 111 203 C112.5474 202.6905 118.9685 203.3123 120 204 C120.3557 204.2371 120.4023 208.6551 120 209 C119.2624 209.6323 113.572 210.1634 113 210 C112.927 209.9791 112.9323 207.0169 113 207 C113.6996 206.8251 120.9999 208 121 208 C121 208 116 208 116 208 "/>
<path id="13" d="M137 206 C137 206 146.2854 207.2206 148 208 C148.1963 208.0892 148.1032 210.969 148 211 C146.8532 211.344 138.6173 211.3429 138 211 C137.8903 210.939 138.6682 206.0781 139 206 C141.4036 205.4345 155 207 155 207 C155 207 142 207 142 207 C142 207 154.9272 208.9376 155 209 C155.0127 209.0109 151.7713 212.1473 149 213 C146.3171 213.8255 144.8239 213.5648 142 213 C140.6284 212.7257 139.423 211.846 139 211 C138.5166 210.0332 138.7846 207.1231 139 207 C139.6596 206.6231 146 207 146 207 "/>
<path id="14" d="M183 213 C183 213 191.0009 213.9995 191 214 C190.9981 214.0009 177.2136 216.0583 177 216 C176.974 215.9929 178.9453 211.3245 180 211 C182.2525 210.3069 189.9228 211.9074 190 212 C190.0069 212.0083 187.1986 216.0839 185 217 C182.8273 217.9053 178.6596 217.3769 178 217 C177.7846 216.8769 177.8144 213.0825 178 213 C178.9394 212.5825 187 213 187 213 C187 213 181 213 181 213 "/>
<path id="15" d="M220 214 C220 214 218.0153 214.0306 218 214 C217.9771 213.9542 218.7304 212.0225 219 212 C221.5228 211.7898 230 212.9998 230 213 C230 213.0003 221.63 215.2023 219 215 C218.4591 214.9584 216.9272 212.1819 217 212 C217.1191 211.7023 219.1122 210.2904 221 210 C224.9441 209.3932 227.7344 209.5469 230 210 C230.3524 210.0705 231.1073 211.8212 231 212 C230.5861 212.6898 228.8163 214.5047 227 215 C224.3613 215.7197 221.329 215.4984 220 215 C219.5966 214.8487 219 212 219 212 C219.526 211.8247 225.1278 211.1702 229 212 C230.7978 212.3852 233.0214 214.9893 233 215 C232.8713 215.0643 222.54 217.2213 219 217 C218.4419 216.9651 217 214 217 214 "/>
<path id="16" d="M262 213 C262 213 274.7001 212.9182 275 213 C275.0273 213.0074 273.782 215.8045 273 216 C270.1564 216.7109 267.134 216.9727 263 216 C259.7171 215.2275 256.3282 212.3939 256 212 C255.9889 211.9866 257.173 210.1378 258 210 C261.5443 209.4093 267.474 209.8247 268 210 C268 210 267.4415 212.8528 267 213 C264.4981 213.834 256.0003 213.9997 256 214 C255.9998 214.0002 265 215 265 215 "/>
<path id="17" d="M305 220 C305 220 314.9426 218.9836 315 219 C315.0127 219.0036 313.2946 221.6469 312 222 C309.2875 222.7398 305.0933 222.6074 304 222 C303.4837 221.7132 302.8766 217.0771 303 217 C303.5228 216.6733 311.8115 216.9192 312 217 C312.015 217.0064 310.7553 219.8489 310 220 C306.2233 220.7553 297.0022 220.0007 297 220 C296.9989 219.9996 304 218 304 218 "/>
<path id="18" d="M341 212 C341 212 332.7875 207.0125 332 206 C331.9125 205.8875 333.2277 203.1782 334 203 C337.1555 202.2718 340.949 201.7207 345 203 C348.644 204.1507 352.1355 207.415 353 209 C353.3261 209.5979 351.8179 213.6592 351 214 C348.9969 214.8346 344.5711 215.3604 341 214 C335.9834 212.0889 329.9969 206.0031 330 206 C330.0154 205.9846 347 208 347 208 "/>
</g>
</g>
</svg>
