<?xml version="1.0" encoding="utf-8"?>
<!DOCTYPE svg PUBLIC "-//W3C//DTD SVG 1.1//EN" "http://www.w3.org/Graphics/SVG/1.1/DTD/svg11.dtd">
<svg viewBox="0 0 800 800" preserveAspectRatio="xMinYMin meet" xmlns="http://www.w3.org/2000/svg" version="1.1">
<g fill="none" stroke="black" stroke-linecap="round" stroke-linejoin="round" stroke-width="1.2577">
<g transform="translate(87.52,260.4574) scale(2.3853) translate(-169,-128)">
<path id="0" d="M430 191 C430 191 423.7463 177.223 417 172 C411.6752 167.8776 407.6824 167.1385 399 167 C317.3769 165.6975 312.945 165.453 229 169 C207.6314 169.9029 207.3312 173.4692 186 176 C178.2132 176.9239 170 176 170 176 "/>
<path id="1" d="M431 193 C431 193 420.5782 198.2017 410 200 C371.5294 206.54 370.4114 206.8811 331 210 C301.3251 212.3484 300.7594 211.6687 271 211 C256.5775 210.6759 255.9387 211.0379 242 208 C217.5335 202.6676 214.1607 201.1867 193 194 C190.8906 193.2836 191.1898 191.0473 189 190 C180.7239 186.0419 174.3618 186.0533 170 183 C168.9232 182.2463 169 176 169 176 "/>
<path id="2" d="M396 169 C396 169 393.7376 178.8688 394 179 C396.7987 180.3994 424 183 424 183 "/>
<path id="3" d="M361 181 C361 181 358.9285 185.8212 359 186 C359.0273 186.0681 362.68 186.24 363 186 C363.18 185.865 363 183 363 183 "/>
<path id="4" d="M343 183 C343 183 340.9876 185.9876 341 186 C341.062 186.062 345.4612 186.2155 346 186 C346.0862 185.9655 346 184 346 184 "/>
<path id="5" d="M326 181 C326 181 324.8647 184.3236 325 185 C325.0498 185.2492 326.9 186.075 327 186 C327.4 185.7 329 182 329 182 "/>
<path id="6" d="M310 180 C310 180 309.7243 184.5404 310 185 C310.0993 185.1654 312.8125 185.1875 313 185 C313.1875 184.8125 313 182 313 182 "/>
<path id="7" d="M296 180 C296 180 293.9601 182.8403 294 183 C294.0279 183.1118 296.9416 184.0584 297 184 C297.1169 183.8831 297 180 297 180 "/>
<path id="8" d="M271 180 C271 180 268.9847 181.9542 269 182 C269.0229 182.0688 271.9786 183.0107 272 183 C272 183 271 181 271 181 "/>
<path id="9" d="M254 181 C254 181 252.8881 184.8508 253 185 C253.1033 185.1377 256.9694 185.0611 257 185 C257.0458 184.9083 255 181 255 181 "/>
<path id="10" d="M236 182 C236 182 236.6543 186.7234 237 187 C237.2213 187.177 240.5175 186.4825 241 186 C241.2895 185.7105 241.1875 183.1875 241 183 C240.8125 182.8125 238 183 238 183 "/>
<path id="11" d="M221 183 C221 183 219.9978 185 220 185 C220.0065 185 223 183 223 183 "/>
<path id="12" d="M274 189 C274 189 242.7593 208.7555 223 226 C219.7736 228.8157 218.8306 234.29 219 237 C219.0837 238.3392 221.3616 240.5929 224 242 C227.992 244.129 229.2643 244.549 234 245 C239.0207 245.4782 240.5382 245.5616 245 244 C249.3635 242.4728 250.1689 241.5247 254 238 C262.3483 230.3195 261.2907 228.4425 270 221 C288.4406 205.2417 309 191 309 191 "/>
<path id="13" d="M290 165 C290 165 297.005 163.4341 302 160 C312.2529 152.9512 311.4536 150.1127 322 143 C332.4217 135.9714 333.5568 134.8144 345 131 C354.7479 127.7507 365.9366 127.5215 367 128 C367.1751 128.0788 367.561 137.439 365 140 C353.6585 151.3415 329 166 329 166 "/>
</g>
</g>
</svg>
