<?xml version="1.0" encoding="utf-8"?>
<!DOCTYPE svg PUBLIC "-//W3C//DTD SVG 1.1//EN" "http://www.w3.org/Graphics/SVG/1.1/DTD/svg11.dtd">
<svg viewBox="0 0 800 800" preserveAspectRatio="xMinYMin meet" xmlns="http://www.w3.org/2000/svg" version="1.1">
<g fill="none" stroke="black" stroke-linecap="round" stroke-linejoin="round" stroke-width="1.9057">
<g transform="translate(87.52,256.7472) scale(1.5742) translate(-79,-64.1333)">
<path id="0" d="M81 114.1333 C81 114.1333 82.5523 130.8419 82 147.1333 C81.5627 160.0324 78.7166 164.6316 79 173.1333 C79.0452 174.4901 81.0615 176.6939 83 177.1333 C112.2142 183.7552 118.537 184.5922 154 190.1333 C166.2914 192.0539 166.5288 191.3019 179 192.1333 C181.481 192.2987 183.8472 192.2097 184 192.1333 C184 192.1333 183 190.1333 183 190.1333 "/>
<path id="1" d="M82 117.1333 C82 117.1333 81.1448 96.5719 83 79.1333 C83.4589 74.8199 85.7548 71.2402 87 70.1333 C87.4266 69.7541 90.2674 70.0195 92 71.1333 C96.3425 73.9249 97.4231 74.5897 101 79.1333 C115.474 97.5192 116.152 103.9329 129 118.1333 C131.406 120.7926 134.1665 120.974 139 121.1333 C177.7678 122.4114 180.1265 123.3662 220 121.1333 C241.8527 119.9096 242.0849 115.7567 264 114.1333 C295.5417 111.7969 297.728 110.3532 328 113.1333 C344.5401 114.6523 346.8793 116.9476 362 123.1333 C367.2688 125.2888 366.757 128.2934 372 131.1333 C378.1117 134.4439 380.2215 132.6662 386 136.1333 C391.7785 139.6004 391.5025 142.4684 397 146.1333 C399.5931 147.8621 401.4005 146.3067 404 148.1333 C418.4935 158.318 423.044 159.96 434 172.1333 C438.5972 177.2413 440 188.1333 440 188.1333 "/>
<path id="2" d="M293 178.1333 C293 178.1333 260.8669 195.4122 228 209.1333 C209.8634 216.7049 208.4893 214.1374 190 221.1333 C171.7222 228.0493 172.2652 230.8781 154 237.1333 C136.3501 243.1778 135.1514 242.6575 117 246.1333 C112.3125 247.0309 109.3562 246.9187 107 246.1333 C106.2146 245.8715 105.4222 244.0333 105 242.1333 C104.525 239.9959 104.2263 238.6808 105 237.1333 C106.5475 234.0383 107.6133 231.8267 111 230.1333 C129.0032 221.1317 134.3719 224.2737 153 213.1333 C183.8217 194.7008 185.3689 180.0403 213 169.1333 C232.4263 161.465 240.4863 167.3968 267 168.1333 C275.8834 168.3801 277.0046 168.6732 285 171.1333 C289.0302 172.3734 293 176.1333 293 176.1333 "/>
<path id="3" d="M304 111.1333 C304 111.1333 307.4818 105.7062 312 103.1333 C341.7934 86.1676 343.9062 86.1802 376 70.1333 C381.7809 67.2429 382.1134 66.2371 388 65.1333 C397.1854 63.4111 406.5348 62.9472 408 64.1333 C409.1889 65.0958 410.738 74.7951 409 82.1333 C406.8114 91.3741 404.8026 93.0149 399 102.1333 C394.598 109.0507 393.8767 110.0961 388 115.1333 C384.2086 118.3831 382.0427 117.0419 378 120.1333 C374.1638 123.0669 371 128.1333 371 128.1333 "/>
<path id="4" d="M371 134.1333 C371 134.1333 361.8611 144.4632 352 150.1333 C343.2491 155.1651 332.9295 154.9894 331 157.1333 C330.2327 157.9859 331.5398 164.7209 334 170.1333 C336.0865 174.7236 338.0045 177.6356 341 179.1333 C343.8653 180.566 346.9198 180.1166 352 179.1333 C361.773 177.2418 363.1694 177.4354 372 173.1333 C381.7591 168.3789 383.9751 167.1583 391 160.1333 C394.9515 156.1818 397 148.1333 397 148.1333 "/>
<path id="5" d="M182 146.1333 C182 146.1333 177.3746 146.5089 177 147.1333 C176.1009 148.6319 175.128 154.6073 176 156.1333 C177.0494 157.9697 180.7711 160.214 185 161.1333 C190.8694 162.4093 194.7115 162.3246 199 161.1333 C200.6507 160.6748 202.1782 158.3933 203 156.1333 C203.7639 154.0325 203.8702 151.2935 203 150.1333 C201.1509 147.6679 198.1477 145.5972 194 144.1333 C191.0154 143.0799 188.7125 143.3936 186 144.1333 C184.7054 144.4864 183 147.1333 183 147.1333 "/>
<path id="6" d="M243 147.1333 C243 147.1333 234.6974 147.3584 234 148.1333 C233.3102 148.8997 232.809 155.3469 234 157.1333 C235.6762 159.6476 239.1748 161.8342 244 163.1333 C250.7585 164.9529 258.4232 165.1846 260 164.1333 C261.0969 163.402 262.622 151.7165 262 151.1333 C260.7864 149.9956 244 149.1333 244 149.1333 "/>
<path id="7" d="M289 151.1333 C289 151.1333 285.9649 150.5819 285 151.1333 C283.7249 151.8619 282.4164 153.329 282 155.1333 C281.2014 158.594 281.0839 161.9346 282 164.1333 C282.5174 165.3752 284.567 166.6654 287 167.1333 C296.3293 168.9274 305.162 170.3158 308 169.1333 C309.1258 168.6642 311.6034 157.9379 311 157.1333 C310.0562 155.8749 296 153.1333 296 153.1333 "/>
<path id="8" d="M259 199.1333 C259 199.1333 299.104 198.4677 332 200.1333 C334.7703 200.2736 335.0416 202.6403 338 203.1333 C351.8817 205.4469 353.2489 203.7115 368 206.1333 C386.5346 209.1763 386.7332 211.4763 405 214.1333 C413.6156 215.3865 414.6918 215.2793 423 214.1333 C428.3319 213.3979 430.3846 212.8981 434 210.1333 C437.3129 207.6 438.6826 205.4619 440 201.1333 C441.7406 195.4141 441.6551 188.1524 441 187.1333 C440.6847 186.6429 431.7633 186.3065 431 187.1333 C429.7724 188.4632 428.7463 196.0735 429 200.1333 C429.0628 201.1384 430.723 202.8386 432 203.1333 C435.4586 203.9315 439.1564 203.8442 442 203.1333 C442.782 202.9378 443.7732 201.494 444 200.1333 C444.6123 196.4594 444.9425 193.0183 444 191.1333 C443.3717 189.8767 438.9425 189.39 438 188.1333 C437.3717 187.2956 438 183.1333 438 183.1333 "/>
<path id="9" d="M443 151.1333 C443 151.1333 435.6277 150.0614 430 151.1333 C426.207 151.8558 424.7582 152.3751 422 155.1333 C411.4267 165.7066 409.2212 167.6371 401 180.1333 C397.6892 185.1657 398.0596 186.7754 397 193.1333 C396.1471 198.2507 396.003 199.1485 397 204.1333 C398.3595 210.9309 398.2123 213.3576 402 218.1333 C408.1722 225.9157 411.9174 230.5538 420 233.1333 C430.2862 236.4162 436.5278 235.212 449 233.1333 C455.0927 232.1179 456.8301 230.4761 462 226.1333 C468.5062 220.6681 471.5511 218.7804 474 212.1333 C477.2886 203.2073 476.5984 199.2029 476 188.1333 C475.669 182.01 475.1165 180.5463 472 175.1333 C466.1681 165.0042 463.6387 159.7804 457 155.1333 C453.406 152.6175 442 154.1333 442 154.1333 "/>
</g>
</g>
</svg>
