<?xml version="1.0" encoding="utf-8"?>
<!DOCTYPE svg PUBLIC "-//W3C//DTD SVG 1.1//EN" "http://www.w3.org/Graphics/SVG/1.1/DTD/svg11.dtd">
<svg viewBox="0 0 800 800" preserveAspectRatio="xMinYMin meet" xmlns="http://www.w3.org/2000/svg" version="1.1">
<g fill="none" stroke="black" stroke-linecap="round" stroke-linejoin="round" stroke-width="1.2145">
<g transform="translate(208.5597,87.52) scale(2.4702) translate(-169,-37.1333)">
<path id="0" d="M234 73.1333 L235 131.1333 "/>
<path id="1" d="M235 131.1333 L235 136.1333 "/>
<path id="2" d="M265 73.1333 L263 132.1333 "/>
<path id="3" d="M234 73.1333 C234 73.1333 233.1669 61.1603 236 53.1333 C238.3984 46.3377 241.1193 43.7269 246 39.1333 C247.8705 37.3728 251.5254 36.5435 253 37.1333 C255.6638 38.1988 258.1249 40.9514 261 45.1333 C263.143 48.2504 263.5253 49.2171 264 53.1333 C265.4258 64.8962 265 78.1333 265 78.1333 "/>
<path id="4" d="M235 135.1333 C235 135.1333 218.3557 145.4337 203 157.1333 C186.9994 169.3242 184.5194 173.5596 172 183.1333 C171.2619 183.6978 169 183.1333 169 183.1333 "/>
<path id="5" d="M263 137.1333 L264 131.1333 "/>
<path id="6" d="M264 137.1333 C264 137.1333 284.6422 153.5388 306 168.1333 C314.3944 173.8695 324 178.1333 324 178.1333 "/>
<path id="7" d="M171 182.1333 L172 191.1333 "/>
<path id="8" d="M323 177.1333 L323 183.1333 "/>
<path id="9" d="M174 191.1333 L237 173.1333 "/>
<path id="10" d="M264 170.1333 L322 184.1333 "/>
<path id="11" d="M235 175.1333 L235 228.1333 "/>
<path id="12" d="M264 171.1333 L263 224.1333 "/>
<path id="13" d="M237 237.1333 L234 227.1333 "/>
<path id="14" d="M263 224.1333 L260 233.1333 "/>
<path id="15" d="M238 240.1333 L208 273.1333 "/>
<path id="16" d="M259 239.1333 L262 228.1333 "/>
<path id="17" d="M259 241.1333 L283 273.1333 "/>
<path id="18" d="M208 276.1333 L211 285.1333 "/>
<path id="19" d="M283 274.1333 C283 274.1333 283.6835 277.4246 283 279.1333 C282.0978 281.3889 279 284.1333 279 284.1333 "/>
<path id="20" d="M213 286.1333 L240 267.1333 "/>
<path id="21" d="M257 267.1333 C257 267.1333 260.9614 274.5746 266 279.1333 C270.652 283.3422 278 286.1333 278 286.1333 "/>
<path id="22" d="M241 268.1333 C241 268.1333 242.995 268.0968 243 268.1333 C243.4048 271.1022 243.976 290.1303 244 290.1333 C244.08 290.1433 259 270.1333 259 270.1333 "/>
<path id="23" d="M241 81.1333 C241 81.1333 245.6684 81.6028 246 82.1333 C246.5626 83.0335 246.5694 88.3741 246 89.1333 C245.5526 89.7299 240.3536 90.4364 240 90.1333 C239.5188 89.7208 239 83.1333 239 83.1333 "/>
<path id="24" d="M255 84.1333 C255 84.1333 262.8748 83.983 263 84.1333 C263.0657 84.2122 261.1781 88.9552 260 90.1333 C259.6073 90.526 257.135 90.3133 257 90.1333 C256.76 89.8133 257 86.1333 257 86.1333 "/>
<path id="25" d="M240 105.1333 C240 105.1333 240.9999 109.1337 241 109.1333 C241.0002 109.1325 240.52 101.7733 241 101.1333 C241.27 100.7733 246.8132 100.8718 247 101.1333 C247.2739 101.5169 246.826 107.032 246 108.1333 C245.4937 108.8084 241 109.1333 241 109.1333 "/>
<path id="26" d="M255 104.1333 C255 104.1333 254.9998 107.1335 255 107.1333 C255.0003 107.1331 256 103.1333 256 103.1333 "/>
<path id="27" d="M257 102.1333 C257 102.1333 263.973 102.0973 264 102.1333 C264.0051 102.1402 261.9529 105.2457 260 106.1333 C257.4979 107.2707 254.4659 107.3166 253 107.1333 C252.7335 107.1 252 105.1333 252 105.1333 "/>
<path id="28" d="M240 122.1333 C240 122.1333 240 127.1333 240 127.1333 C240 127.1333 239.6951 122.5144 240 122.1333 C240.1951 121.8894 243.8769 121.9179 244 122.1333 C244.3769 122.7929 244 129.1333 244 129.1333 "/>
<path id="29" d="M255 123.1333 C255 123.1333 253.8849 120.2868 254 120.1333 C254.2046 119.8605 257.9603 119.0638 258 119.1333 C258.2472 119.5659 258 127.1333 258 127.1333 "/>
<path id="30" d="M242 128.1333 L243 129.1333 "/>
<path id="31" d="M241 149.1333 C241 149.1333 240.6666 145.4112 241 145.1333 C241.6835 144.5638 246.8213 143.9249 247 144.1333 C247.345 144.5358 247.4494 151.4142 247 152.1333 C246.8244 152.4142 242.8662 152.5664 242 152.1333 C241.5669 151.9168 241 149.1333 241 149.1333 "/>
<path id="32" d="M256 146.1333 C256 146.1333 260.9474 144.0702 261 144.1333 C261.1943 144.3665 261.3288 151.2566 261 152.1333 C260.9538 152.2566 258.5225 152.5812 258 152.1333 C256.4076 150.7684 254 146.1333 254 146.1333 "/>
<path id="33" d="M243 166.1333 C243 166.1333 243 171.1333 243 171.1333 C243 171.1333 242.5676 164.6377 243 164.1333 C243.3176 163.7627 248.8383 163.8747 249 164.1333 C249.3179 164.642 248.6633 171.2489 248 172.1333 C247.7157 172.5124 243 172.1333 243 172.1333 "/>
<path id="34" d="M258 170.1333 C258 170.1333 256.0015 171.1379 256 171.1333 C255.9832 171.083 256.5058 167.5287 257 167.1333 C257.4707 166.7568 260.68 166.8933 261 167.1333 C261.18 167.2683 261.2347 169.9769 261 170.1333 C260.2178 170.6548 255 171.1333 255 171.1333 "/>
</g>
</g>
</svg>
