<?xml version="1.0" encoding="utf-8"?>
<!DOCTYPE svg PUBLIC "-//W3C//DTD SVG 1.1//EN" "http://www.w3.org/Graphics/SVG/1.1/DTD/svg11.dtd">
<svg viewBox="0 0 800 800" preserveAspectRatio="xMinYMin meet" xmlns="http://www.w3.org/2000/svg" version="1.1">
<g fill="none" stroke="black" stroke-linecap="round" stroke-linejoin="round" stroke-width="1.1473">
<g transform="translate(87.52,222.1871) scale(2.6149) translate(-187,-145.1333)">
<path id="0" d="M378 218.1333 C378 218.1333 366.5641 216.3594 359 211.1333 C340.7792 198.5444 341.6633 193.2894 323 180.1333 C312.2061 172.5245 310.8398 172.7616 298 168.1333 C268.2934 157.4251 267.3717 155.4266 237 149.1333 C213.2268 144.2074 192.2929 145.1333 187 145.1333 C187 145.1333 186.2874 148.2531 187 149.1333 C192.4801 155.9029 194.531 161.0123 204 166.1333 C240.3194 185.7754 247.7172 181.5297 285 202.1333 C302.7079 211.9193 300.907 218.4852 318 229.1333 C329.9578 236.5824 332.499 236.9048 346 240.1333 C353.9339 242.0306 364 240.1333 364 240.1333 "/>
<path id="1" d="M245 150.1333 C245 150.1333 407.7698 149.3633 425 150.1333 C425.0615 150.1361 424 158.1333 424 158.1333 "/>
<path id="2" d="M302 171.1333 C302 171.1333 372.4729 174.9176 410 171.1333 C414.2427 170.7055 415.4984 163.9472 421 159.1333 C422.7273 157.622 426 157.1333 426 157.1333 "/>
<path id="3" d="M221 178.1333 C221 178.1333 219.8092 189.3096 221 199.1333 C221.7079 204.9737 224.0877 205.1381 225 211.1333 C227.4931 227.5169 225.3415 228.5916 228 245.1333 C229.7705 256.1497 230.5332 256.7329 234 267.1333 C234.8667 269.7334 235.2681 271.2674 237 272.1333 C246.2894 276.7781 261.9333 281.2695 262 281.1333 C263.1818 278.7204 262.8436 251.5246 261 223.1333 C260.3885 213.7161 259.8916 212.4867 257 204.1333 C255.7615 200.5556 252.9089 200.4658 252 197.1333 C250.3403 191.0479 251 182.1333 251 182.1333 "/>
<path id="4" d="M377 219.1333 C377 219.1333 379.8187 219.1329 381 218.1333 C385.2563 214.5318 385.5245 210.3711 390 208.1333 C395.9141 205.1763 406.753 204.9069 407 205.1333 C407.1358 205.2578 403.2979 212.2114 402 219.1333 C400.4198 227.5613 401 237.1333 401 237.1333 "/>
<path id="5" d="M363 241.1333 C363 241.1333 395.442 274.7887 396 275.1333 C396.0726 275.1782 395.401 267.8439 397 262.1333 C398.6471 256.2507 401.7789 255.8317 403 250.1333 C404.4706 243.2707 403 234.1333 403 234.1333 "/>
<path id="6" d="M243 160.1333 C243 160.1333 242.3217 171.8736 243 173.1333 C243.1967 173.4986 249.4956 173.5657 250 173.1333 C250.3706 172.8157 250.7998 168.4663 250 167.1333 C248.987 165.4449 244 163.1333 244 163.1333 "/>
<path id="7" d="M266 171.1333 C266 171.1333 263.7463 180.0735 264 184.1333 C264.0628 185.1384 266.0471 187.0539 267 187.1333 C269.59 187.3492 274.9819 186.1515 276 185.1333 C276.6479 184.4854 276.3769 178.7929 276 178.1333 C275.8769 177.9179 272.4707 178.5099 272 178.1333 C271.5058 177.7379 271 174.1333 271 174.1333 "/>
<path id="8" d="M293 188.1333 C293 188.1333 290.5258 189.6873 290 191.1333 C288.9249 194.0897 288.6726 198.8423 289 199.1333 C289.5358 199.6096 297.8409 199.871 299 199.1333 C299.6323 198.731 300.6557 194.2645 300 192.1333 C299.2613 189.7327 295 186.1333 295 186.1333 "/>
<path id="9" d="M314 201.1333 C314 201.1333 308.9111 211.889 309 213.1333 C309.0185 213.3929 312.0774 214.7436 315 215.1333 C319.1974 215.693 323.7611 215.5514 324 215.1333 C324.6237 214.0418 323.9554 202.6196 323 201.1333 C322.6644 200.6113 315 201.1333 315 201.1333 "/>
<path id="10" d="M219 145.1333 C219 145.1333 220.7261 154.7391 219 160.1333 C217.5546 164.6501 211 170.1333 211 170.1333 "/>
<path id="11" d="M191 149.1333 C191 149.1333 195.487 148.1965 199 149.1333 C209.5975 151.9593 221 157.1333 221 157.1333 "/>
</g>
</g>
</svg>
