<?xml version="1.0" encoding="utf-8"?>
<!DOCTYPE svg PUBLIC "-//W3C//DTD SVG 1.1//EN" "http://www.w3.org/Graphics/SVG/1.1/DTD/svg11.dtd">
<svg viewBox="0 0 800 800" preserveAspectRatio="xMinYMin meet" xmlns="http://www.w3.org/2000/svg" version="1.1">
<g fill="none" stroke="black" stroke-linecap="round" stroke-linejoin="round" stroke-width="2.0785">
<g transform="translate(87.52,126.4898) scale(1.4433) translate(-149,-83.1333)">
<path id="0" d="M258 134.1333 C258 134.1333 255.817 146.0563 258 154.1333 C260.1505 162.0903 262.6588 164.9019 268 171.1333 C270.2678 173.7791 272.3772 174.6158 276 175.1333 C281.4342 175.9096 289 174.1333 289 174.1333 "/>
<path id="1" d="M265 143.1333 L275 142.1333 "/>
<path id="2" d="M287 140.1333 L297 140.1333 "/>
<path id="3" d="M279 138.1333 C279 138.1333 280.3842 146.5192 279 151.1333 C278.063 154.2567 273 158.1333 273 158.1333 "/>
<path id="4" d="M277 166.1333 L287 164.1333 "/>
<path id="5" d="M257 133.1333 C257 133.1333 270.6124 120.9731 282 116.1333 C287.3007 113.8805 291.1591 114.0473 297 116.1333 C309.5996 120.6332 313.3896 122.4274 324 131.1333 C331.0044 136.8805 336 148.1333 336 148.1333 "/>
<path id="6" d="M258 133.1333 C258 133.1333 258.9878 128.4259 258 125.1333 C256.2961 119.4537 251.7313 113.3674 252 113.1333 C255.0224 110.5009 271.2403 102.8904 289 98.1333 C297.2265 95.9298 299.8759 96.0551 308 98.1333 C319.4652 101.0663 322.8886 102.2382 332 109.1333 C339.2906 114.6506 341.0537 117.0674 345 126.1333 C358.6626 157.5205 355.7661 161.827 369 194.1333 C372.247 202.0599 373.3389 202.7003 379 209.1333 C383.8904 214.6906 391 219.1333 391 219.1333 "/>
<path id="7" d="M337 147.1333 C337 147.1333 339.5381 156.2138 339 162.1333 C338.7326 165.0749 334.9332 168.5321 335 169.1333 C335.026 169.3677 338.4583 169.7843 340 171.1333 C341.6845 172.6072 342.1517 173.5883 343 176.1333 C344.5081 180.6578 343.0254 181.902 345 186.1333 C349.6235 196.0409 354.6493 200.7267 357 206.1333 C357.1986 206.5901 355 209.1333 355 209.1333 "/>
<path id="8" d="M290 174.1333 L308 169.1333 "/>
<path id="9" d="M287 178.1333 C287 178.1333 294.951 184.115 303 187.1333 C310.1142 189.8012 319 190.1333 319 190.1333 "/>
<path id="10" d="M305 188.1333 C305 188.1333 310.6853 181.4312 314 175.1333 C315.2196 172.816 315 169.1333 315 169.1333 "/>
<path id="11" d="M271 172.1333 L257 198.1333 "/>
<path id="12" d="M260 191.1333 C260 191.1333 253.4114 199.8461 249 209.1333 C244.0995 219.4503 242.4969 220.4676 241 231.1333 C238.7341 247.2776 238.5816 251.0185 241 266.1333 C242.1249 273.1639 244.3744 276.718 249 281.1333 C253.0886 285.0361 263 287.1333 263 287.1333 "/>
<path id="13" d="M373 209.1333 C373 209.1333 381.2434 226.1677 385 242.1333 C386.8876 250.1555 386.6857 252.4272 385 260.1333 C383.5455 266.7826 382.5419 269.9047 378 274.1333 C370.2686 281.3315 367.2389 281.9251 356 287.1333 C347.2652 291.1812 346.2779 291.4464 337 293.1333 C330.5349 294.3088 323.1113 293.4797 323 293.1333 C322.3471 291.102 326.1754 278.9999 328 265.1333 C328.6367 260.2947 328.9872 259.082 328 255.1333 C327.309 252.3692 324 249.1333 324 249.1333 "/>
<path id="14" d="M263 289.1333 C263 289.1333 282.6048 289.9896 283 289.1333 C284.6302 285.6012 282.9758 267.9151 281 250.1333 C280.681 247.262 278 244.1333 278 244.1333 "/>
<path id="15" d="M285 280.1333 C285 280.1333 288.7278 283.4789 292 284.1333 C297.4536 285.2241 304.5794 284.845 305 284.1333 C306.2044 282.095 306.4391 272.2068 305 262.1333 C304.1029 255.8538 301.2011 255.5391 300 249.1333 C298.3465 240.3147 299 230.1333 299 230.1333 "/>
<path id="16" d="M282 251.1333 C282 251.1333 283.9582 251.2519 284 251.1333 C285.0911 248.042 284.7343 241.5357 288 234.1333 C291.8032 225.5127 298.9561 217.1413 299 217.1333 C299.0085 217.1318 299 232.1333 299 232.1333 "/>
<path id="17" d="M323 281.1333 C323 281.1333 312.6867 282.0312 307 281.1333 C305.7654 280.9384 304 278.1333 304 278.1333 "/>
<path id="18" d="M300 218.1333 C300 218.1333 303.1892 218.1462 304 219.1333 C312.061 228.9467 316.039 232.8442 323 246.1333 C326.1217 252.0929 326 261.1333 326 261.1333 "/>
<path id="19" d="M355 207.1333 C355 207.1333 363.4114 207.593 369 210.1333 C373.0675 211.9822 377 217.1333 377 217.1333 "/>
<path id="20" d="M273 288.1333 C273 288.1333 271.2734 304.0329 273 318.1333 C274.1358 327.4089 274.6869 328.6869 279 337.1333 C286.2703 351.3709 287.1675 352.4463 297 365.1333 C302.1741 371.8095 310 377.1333 310 377.1333 "/>
<path id="21" d="M353 147.1333 C353 147.1333 357.9036 126.9259 366 110.1333 C370.8184 100.1396 372.3892 97.0045 380 91.1333 C387.2162 85.5665 390.8879 84.2415 401 83.1333 C425.0359 80.4993 432.3549 77.852 453 83.1333 C468.7331 87.1581 475.5678 91.5417 487 105.1333 C516.8475 140.6187 523.1797 146.1114 543 190.1333 C568.8171 247.4744 581.7753 314.8923 582 316.1333 C582.0224 316.257 571.3853 312.3698 564 306.1333 C549.8562 294.1897 537.1312 278.0799 537 278.1333 C536.8663 278.1878 538.7507 299.2761 537 317.1333 C536.4393 322.8523 534.8665 324.3558 532 329.1333 C530.968 330.8533 528.5633 332.3538 528 332.1333 C523.277 330.2852 516.2785 327.4118 509 320.1333 C496.5562 307.6895 486.0184 290.1221 486 290.1333 C485.8959 290.1967 486.5306 333.8745 486 334.1333 C485.2758 334.4866 445.0315 310.0842 445 310.1333 C443.7767 312.0429 445.3571 393.0153 445 398.1333 C444.9936 398.2253 439 396.1333 439 396.1333 "/>
<path id="22" d="M384 214.1333 C384 214.1333 397.5075 239.3021 401 263.1333 C405.5444 294.1422 399.1223 297.8364 401 330.1333 C401.5406 339.4323 403.1226 339.7817 406 349.1333 C409.1037 359.2204 408.5452 359.9618 413 369.1333 C416.7803 376.9163 417.5458 377.1208 423 384.1333 C427.922 390.4617 428.9247 392.9915 434 396.1333 C436.9245 397.9437 444 397.1333 444 397.1333 "/>
<path id="23" d="M259 129.1333 C259 129.1333 249.8382 120.9686 240 117.1333 C221.5983 109.9598 219.6143 109.6133 200 106.1333 C189.714 104.3084 187.3726 105.0919 178 106.1333 C175.7279 106.3858 174.758 107.1995 173 109.1333 C165.3959 117.4978 162.3642 118.3138 158 128.1333 C151.3686 143.0539 150.4886 145.9319 149 163.1333 C146.1292 196.3065 145.6094 200.6007 149 232.1333 C150.2322 243.5926 158.6927 255.9345 159 256.1333 C159.017 256.1443 161.4868 248.0979 166 243.1333 C175.535 232.6449 188.9431 223.0863 189 223.1333 C189.283 223.3671 186.635 244.0999 189 262.1333 C190.3978 272.7912 196.2341 283.2033 197 284.1333 C197.0016 284.1352 201.8305 281.2774 203 279.1333 C203.8482 277.5783 202.9992 273.1312 203 273.1333 C203.0106 273.1606 213.6465 310.2296 227 341.1333 C230.0249 348.1339 235.6272 351.943 238 354.1333 C238.1111 354.2359 240.0123 353.3237 240 353.1333 C239.5733 346.5198 236 323.1339 236 323.1333 C236 323.1331 236.6046 328.8633 239 333.1333 C247.6564 348.5643 248.7197 349.3297 259 364.1333 C260.9403 366.9273 262.1179 368.4489 264 369.1333 C265.5559 369.6991 269.8066 368.6583 270 368.1333 C271.1065 365.1299 270.9999 350.1335 271 350.1333 C271 350.1332 270.2284 357.8185 272 363.1333 C273.7716 368.4482 275.3001 368.789 279 374.1333 C284.2805 381.7607 285.0926 384.7712 290 389.1333 C291.591 390.5475 296.3808 390.2218 297 390.1333 C297.0258 390.1296 297 388.1333 297 388.1333 "/>
<path id="24" d="M309 375.1333 C309 375.1333 314.9476 390.0488 324 401.1333 C338.6179 419.0328 342.0917 418.7705 358 435.1333 C358.7051 435.8586 359.0229 437.0875 359 437.1333 C358.9847 437.1639 357 437.1333 357 437.1333 "/>
<path id="25" d="M298 388.1333 L316 395.1333 "/>
<path id="26" d="M430 396.1333 C430 396.1333 428.8831 401.2864 430 405.1333 C433.0543 415.6538 433.0912 417.8156 439 427.1333 C445.351 437.1483 446.7696 438.6492 456 446.1333 C464.2373 452.8122 465.8144 452.7287 476 457.1333 C483.8839 460.5426 484.6788 460.6474 493 462.1333 C498.1157 463.0468 504 462.1333 504 462.1333 C504 462.1333 494.6791 463.8027 487 462.1333 C472.9184 459.0721 472.6498 456.1502 458 452.1333 C441.8837 447.7143 435.766 451.3776 425 445.1333 C416.3546 440.119 408.0098 423.1236 408 423.1333 C407.9316 423.2018 410.3078 459.7769 410 460.1333 C409.9726 460.165 396.6669 453.329 389 445.1333 C383.803 439.578 381.0069 429.123 381 429.1333 C380.982 429.1603 382.326 446.1938 381 457.1333 C380.7403 459.2762 377.0226 462.1493 377 462.1333 C375.7979 461.2848 368.1543 453.1453 364 445.1333 C362.1594 441.5836 363.7596 436.2185 363 435.1333 C362.7018 434.7074 357 435.1333 357 435.1333 "/>
</g>
</g>
</svg>
