<?xml version="1.0" encoding="utf-8"?>
<!DOCTYPE svg PUBLIC "-//W3C//DTD SVG 1.1//EN" "http://www.w3.org/Graphics/SVG/1.1/DTD/svg11.dtd">
<svg viewBox="0 0 800 800" preserveAspectRatio="xMinYMin meet" xmlns="http://www.w3.org/2000/svg" version="1.1">
<g fill="none" stroke="black" stroke-linecap="round" stroke-linejoin="round" stroke-width="1.8721">
<g transform="translate(122.7742,87.52) scale(1.6025) translate(-100,-74)">
<path id="0" d="M241 145 C241 145 237 149.0102 237 149 C237 148.9594 238.5114 140.4657 241 133 C241.8614 130.4157 242.3394 129.2916 244 128 C245.8213 126.5834 247.1815 126.1342 250 126 C256.9142 125.6708 260.9318 124.653 265 127 C269.9823 129.8744 271.2451 133.7278 276 141 C279.5726 146.464 280.8032 147.1868 282 153 C284.008 162.7532 283.9455 166.1754 283 175 C282.7224 177.5912 281.3026 179.2287 279 181 C275.7722 183.4829 274.2855 184.447 270 185 C260.0926 186.2784 256.3325 186.4879 248 185 C245.3893 184.5338 244.5307 182.7608 242 180 C239.2082 176.9544 238.4746 176.4407 237 173 C235.8019 170.2044 235.8749 169.3765 236 166 C236.3605 156.2656 238 146 238 146 "/>
<path id="1" d="M245 154 C245 154 246.3455 156.8691 247 157 C248.9635 157.3927 255 156 255 156 "/>
<path id="2" d="M266 155 C266 155 268.8722 157.859 270 158 C270.9667 158.1208 274 156 274 156 "/>
<path id="3" d="M256 174 L266 175 "/>
<path id="4" d="M255 126 L254 112 "/>
<path id="5" d="M236 168 C236 168 239.9689 175.6107 241 183 C242.8483 196.246 243.5123 198.9014 242 211 C241.3083 216.5339 239.5506 218.3569 236 223 C233.784 225.8978 232.4261 226.6296 229 228 C225.8023 229.2791 222.3886 229.6312 221 229 C219.946 228.5209 219.4025 226.0387 218 223 C216.4076 219.5499 215.2614 219.3111 215 216 C213.8802 201.8163 214.0123 200.3091 215 185 C215.9959 169.5635 216.7687 169.1728 219 154 C219.2223 152.4884 219.9786 151.0107 220 151 C220 151 220.9998 153.0027 221 153 C221.0016 152.9764 219.6345 143.3735 221 136 C221.8776 131.2611 222.8401 130.1474 226 126 C230.4348 120.1793 231.2514 119.1062 237 115 C240.9195 112.2003 242.1762 112.072 247 111 C250.544 110.2124 255 111 255 111 "/>
<path id="6" d="M254 111 C254 111 256.2302 109.1041 258 109 C263.5621 108.6728 265.9755 108.1158 271 110 C276.2593 111.9722 278.8367 116.2967 282 118 C282.302 118.1626 283.9 116.925 284 117 C284.4 117.3 285.458 118.9676 286 121 C287.3788 126.1706 286.0461 127.1152 288 132 C292.7689 143.9222 297.1681 144.1413 300 156 C304.6334 175.4022 299.1906 185.3312 304 199 C305.7629 204.0104 316.5768 205.3152 319 210 C321.3252 214.4953 320.1715 219.7996 319 228 C318.312 232.8161 317.0988 236.5185 315 238 C312.2648 239.9307 305.1436 241.4595 302 240 C296.2801 237.3443 292.783 232.807 287 225 C283.522 220.3047 283.4846 218.9386 282 213 C280.6274 207.5096 281.2218 206.9895 281 201 C280.7236 193.5361 280.051 192.3269 281 186 C281.3448 183.7012 284 181 284 181 "/>
<path id="7" d="M252 187 C252 187 255.5508 189.6791 256 192 C258.0528 202.6062 258 218 258 218 "/>
<path id="8" d="M273 186 C273 186 270.1964 189.7597 270 193 C269.2907 204.7032 271 219 271 219 "/>
<path id="9" d="M271 219 L262 225 "/>
<path id="10" d="M258 218 L264 224 "/>
<path id="11" d="M256 219 C256 219 256.7134 248.4827 254 252 C252.328 254.1674 240.7701 251.8318 229 254 C222.5411 255.1898 222.1674 256.9442 216 259 C215.159 259.2803 214.0153 259.0306 214 259 C213.9771 258.9542 215 257 215 257 "/>
<path id="12" d="M264 226 C264 226 265.5758 249.0782 264 262 C263.7544 264.0136 261.0136 266.7544 259 267 C246.0782 268.5758 239.9703 265.5858 223 267 C217.1861 267.4845 211.7947 271.2445 211 271 C210.7446 270.9214 209.5306 265.8165 210 263 C210.2697 261.382 213 259 213 259 "/>
<path id="13" d="M270 220 C270 220 274.2119 225.2714 275 230 C276.4549 238.7296 275 250 275 250 "/>
<path id="14" d="M265 264 C265 264 265.8056 266.9762 267 268 C268.4773 269.2663 269.6788 269.9516 272 270 C291.7878 270.4122 309.6864 270.3593 315 269 C315.3142 268.9196 315.3302 259.0943 315 259 C310.9552 257.8443 294.6437 259.7707 280 259 C278.7008 258.9316 277.3772 257.9429 277 257 C276.0099 254.5248 276 249 276 249 "/>
<path id="15" d="M214 256 C214 256 209.8429 260.2914 209 264 C207.7084 269.6829 208.0805 272.4832 209 278 C209.2955 279.7732 211.8898 280.5673 212 282 C212.2304 284.9956 210 291 210 291 "/>
<path id="16" d="M202 257 C202 257 203.112 252.888 205 251 C207.3075 248.6925 208.715 247.8213 212 247 C215.6956 246.0761 218.4825 245.8252 221 247 C223.5921 248.2096 227 254 227 254 "/>
<path id="17" d="M227 266 C227 266 230.4974 283.702 227 294 C223.1137 305.443 213.1397 314.8603 209 319 C208.7112 319.2888 204.8382 318.3272 204 317 C200.5188 311.4882 201.4363 307.3069 197 300 C193.436 294.1299 189.9539 294.4156 187 289 C184.8294 285.0206 186.7285 282.9387 185 278 C183.4118 273.4623 181.3203 273.225 180 269 C179.125 266.2 178.8986 264.2028 180 262 C182.4389 257.1223 185.6235 256.5251 189 251 C190.6825 248.2467 189.1321 246.3162 191 244 C200.2276 232.5578 214 220 214 220 "/>
<path id="18" d="M315 261 L315 301 "/>
<path id="19" d="M300 260 C300 260 301.9765 253.14 305 248 C306.607 245.2681 308.2345 243.331 310 243 C313.1593 242.4076 321 245 321 245 "/>
<path id="20" d="M321 215 C321 215 323.6659 225.7538 328 235 C330.9321 241.2551 332.3564 243.6166 336 247 C337.3188 248.2246 340.9478 246.9478 342 248 C343.9542 249.9542 345.3769 252.6382 346 257 C347.7019 268.9135 349.5076 272.0049 347 283 C343.673 297.5877 339.0174 298.5804 333 314 C331.2209 318.5588 332.76 321.536 331 324 C329.504 326.0944 326.6039 327.431 323 328 C318.4731 328.7148 314.2961 328.8587 312 327 C307.5374 323.3874 304.7395 318.3966 302 311 C300.4706 306.8707 301.1471 305.1173 302 300 C303.0596 293.6421 305.2056 293.3555 306 287 C307.1181 278.0552 306 268 306 268 "/>
<path id="21" d="M227 300 C227 300 230.2831 322.5644 227 341 C224.2522 356.4297 217.6423 357.5903 214 373 C211.6115 383.1053 212.5614 385.3546 214 396 C214.9179 402.7925 215.5132 404.4211 219 410 C222.3086 415.2938 223.6153 416.7307 229 420 C236.4548 424.5261 238.4414 425.9302 247 427 C260.5463 428.6933 263.6935 428.4194 277 426 C283.7334 424.7757 286.2924 422.1384 291 419 C291.7566 418.4956 292 416 292 416 "/>
<path id="22" d="M299 306 C299 306 292.3496 315.3962 291 324 C288.6869 338.7457 287.2741 344.5072 291 357 C294.2822 368.0051 303.2409 369.4781 308 381 C311.5018 389.478 310.3298 393.1063 310 403 C309.8782 406.6537 309.2248 407.8852 307 411 C302.2683 417.6244 300.6731 418.7051 295 424 C294.0754 424.863 292.8959 425.2757 292 425 C288.1603 423.8186 282 420 282 420 "/>
<path id="23" d="M236 424 C236 424 235.6744 432.6373 234 439 C233.4835 440.9627 231.165 441.3496 231 443 C230.3897 449.1026 231.1867 458.4126 232 459 C232.9608 459.6939 247.7781 457.725 249 456 C250.7059 453.5917 247.499 443.7058 249 435 C249.6334 431.3261 254 427 254 427 "/>
<path id="24" d="M290 425 C290 425 291.6125 437.4989 295 448 C296.323 452.1014 298.5807 452.3098 300 456 C300.7151 457.8594 300.5988 459.4032 300 461 C299.506 462.3174 297.9704 463.9254 297 464 C294.0426 464.2275 289.8313 464.0448 287 462 C283.0555 459.1512 281.7931 456.7723 279 451 C274.6074 441.922 272 431 272 431 "/>
<path id="25" d="M303 195 C303 195 304.2219 190.4548 306 189 C308.3504 187.0769 310.1464 186.3986 314 186 C323.7379 184.9926 325.3007 184.6144 335 186 C341.7961 186.9709 342.2009 189.9698 349 191 C357.7537 192.3263 358.832 191.9911 368 191 C376.8941 190.0385 377.8308 190.0635 386 187 C393.1219 184.3293 395.3849 183.6151 400 179 C403.776 175.224 402.3431 171.1141 406 167 C409.1412 163.4661 411.3352 162.4731 416 161 C419.5296 159.8854 421.8712 159.7832 425 161 C429.0752 162.5848 432.2207 164.6031 434 168 C436.2856 172.3635 436.2709 175.7703 436 182 C435.8223 186.0882 435.1471 187.0361 433 191 C428.8741 198.617 428.6724 200.0698 423 206 C418.5023 210.7022 410.9994 213.9992 411 214 C411.0038 214.0048 419.0705 211.8811 427 211 C432.3403 210.4066 433.0726 210.1788 438 211 C441.3596 211.5599 444.4005 212.6511 445 214 C446.5151 217.4091 446.3403 222.5352 446 229 C445.9065 230.7756 445.3404 232.0861 444 233 C436.2023 238.3166 434.0578 240.4915 424 244 C413.7067 247.5907 401.0052 247.9983 401 248 C400.9984 248.0005 406.3464 247.4637 409 249 C414.1932 252.0066 419.0531 256.7003 420 259 C420.3489 259.8473 418.127 264.8858 416 266 C410.7022 268.775 407.0433 269.8129 399 270 C386.7983 270.2838 373.0002 267 373 267 C372.9999 267 380.1409 267.8545 381 269 C382.1545 270.5393 382.2736 275.7163 382 279 C381.9402 279.7175 380.9348 280.8182 380 281 C366.3149 283.661 346 286 346 286 "/>
<path id="26" d="M214 194 C214 194 205.1102 186.2565 197 185 C173.0546 181.2901 167.5247 187.2388 143 183 C129.8797 180.7323 129.1664 174.9805 116 171 C108.9919 168.8813 101.5706 169.5092 100 170 C99.8123 170.0587 99.1159 173.6793 100 176 C102.6592 182.9804 103.2889 184.4568 108 191 C111.9032 196.4211 112.8367 197.2709 118 201 C121.048 203.2014 126.0045 203.9901 126 204 C125.9021 204.2153 115.0853 208.6314 113 212 C111.3107 214.7289 111.2357 223.1679 113 225 C118.2979 230.5016 138.9027 238.6269 139 239 C139.0177 239.0679 125.164 243.1201 119 248 C116.292 250.1438 115 254.3976 115 258 C115 261.2421 116.2411 263.9166 119 267 C123.7443 272.3025 125.7766 274.9816 132 277 C141.4438 280.0629 154.4637 277.8294 156 279 C156.4615 279.3516 152.796 289.5324 153 293 C153.0477 293.8116 154.8918 295.1319 157 296 C162.8983 298.4287 163.481 298.9388 170 300 C184.5595 302.3701 200 303 200 303 "/>
<path id="27" d="M250 88 C250 88 243.5046 88.7523 242 88 C241.1537 87.5768 239.9783 83.0068 240 83 C241.098 82.6533 251.4578 81.633 261 82 C263.3111 82.0889 265.3086 82.963 266 84 C266.9938 85.4907 267.3038 90.8047 267 91 C265.5864 91.9088 256.7941 93.2663 252 93 C250.9804 92.9434 249 90 249 90 "/>
<path id="28" d="M231 81 C231 81 239.9823 75.2659 248 74 C257.2296 72.5427 259.7549 72.8868 269 75 C275.7938 76.5529 280.7304 79.0819 283 82 C284.3956 83.7944 283.8593 88.417 283 93 C282.5655 95.3175 281.8668 96.2888 280 98 C276.4305 101.2721 275.1625 103.2893 271 104 C257.6417 106.2807 246.8414 107.6776 239 105 C235.5022 103.8056 232.7107 96.9274 230 90 C228.8292 87.0079 228.9328 84.6681 230 82 C231.254 78.865 236 75 236 75 "/>
</g>
</g>
</svg>
