<?xml version="1.0" encoding="utf-8"?>
<!DOCTYPE svg PUBLIC "-//W3C//DTD SVG 1.1//EN" "http://www.w3.org/Graphics/SVG/1.1/DTD/svg11.dtd">
<svg viewBox="0 0 800 800" preserveAspectRatio="xMinYMin meet" xmlns="http://www.w3.org/2000/svg" version="1.1">
<g fill="none" stroke="black" stroke-linecap="round" stroke-linejoin="round" stroke-width="1.5793">
<g transform="translate(87.52,126.4613) scale(1.8996) translate(-105,-86)">
<path id="0" d="M281 130 C281 130 276.1502 131.4404 273 134 C268.7122 137.4838 266.6065 138.6624 265 143 C262.4833 149.7952 262.0066 154.5427 263 161 C263.501 164.2567 265.9645 166.9764 269 169 C271.7676 170.8451 273.7478 171 278 171 C286.0319 171 288.574 171.659 295 169 C300.8169 166.593 302.9889 164.4888 307 159 C311.5125 152.8251 312.7158 150.491 314 143 C315.4058 134.7997 314.6696 126.1913 313 124 C311.8655 122.511 303.0217 120.6147 298 122 C292.1753 123.6068 287.7204 126.9665 284 132 C281.2176 135.7644 281 145 281 145 "/>
<path id="1" d="M272 171 C272 171 266.2729 184.7257 265 198 C262.884 220.0669 263.757 221.3158 265 244 C265.7355 257.4227 265.7513 258.0052 269 271 C273.641 289.564 281 308 281 308 "/>
<path id="2" d="M308 165 C308 165 309.8776 184.7783 313 200 C313.4 201.9501 315.5047 202.1837 316 204 C316.7197 206.6387 315.1019 207.9604 316 211 C321.2396 228.7341 323.4042 229.4639 329 248 C331.3116 255.6571 331.2397 256.017 332 264 C333.2182 276.7914 334.2404 278.5266 333 290 C332.4471 295.1139 329.0119 295.7379 328 301 C326.731 307.5988 328.1324 315.9389 328 316 C327.8308 316.0781 320.3169 312.051 315 307 C310.9291 303.1326 308.0156 297.0052 308 297 C307.9945 296.9982 309.0667 304.9619 309 305 C308.8932 305.061 301.2516 300.9371 301 301 C300.9461 301.0135 301.7537 305.1158 301 307 C300.2966 308.7586 298.8011 310.5497 297 311 C291.1463 312.4634 285.7094 312.9419 281 312 C279.5097 311.7019 277 307 277 307 "/>
<path id="3" d="M277 170 C277 170 265.5438 165.726 257 159 C242.8491 147.8599 244.0285 144.7448 230 133 C222.9891 127.1304 220.0977 129.0977 214 123 C203.2117 112.2117 204.8179 106.7361 194 97 C186.7714 90.4943 183.5969 88.8201 174 87 C157.2621 83.8256 153.0997 84.9085 136 86 C131.8282 86.2663 131.0335 87.5799 127 90 C123.8157 91.9106 123.1805 92.0926 121 95 C113.1387 105.4818 111.1361 107.0857 106 118 C104.04 122.1649 104.4535 124.6277 105 129 C105.2701 131.161 106.0408 132.5664 108 134 C124.5637 146.1198 126.5661 148.3721 146 159 C157.8354 165.4725 171.9703 168.9407 172 169 C172.0071 169.0142 161.1731 169.6797 153 173 C146.3996 175.6814 145.3351 176.6649 140 182 C125.4497 196.5503 123.7312 198.7495 112 214 C110.1291 216.4322 110.2203 217.5855 110 221 C109.2584 232.4949 107.8787 235.9846 110 245 C111.0502 249.4635 113.5528 251.9759 118 255 C124.5386 259.4463 126.8077 260.407 135 262 C143.4774 263.6484 145.3322 263.1956 154 262 C158.8137 261.336 164 258 164 258 C164 258 153.2897 260.8993 148 266 C141.2366 272.5219 139.8765 275.3087 136 285 C131.3742 296.5644 131.1786 298.6249 130 311 C129.2988 318.363 130.1439 323.0817 132 327 C132.6917 328.4603 135.6484 329.5212 139 330 C145.3165 330.9024 147.8676 331.8819 153 330 C160.3443 327.3071 161.9594 322.8723 169 319 C170.2772 318.2975 172.9841 318.9049 173 319 C174.1571 325.9428 173.7369 347.4215 177 367 C177.4582 369.749 179.6877 372.0479 182 373 C185.8417 374.5819 190.5996 375.4962 194 374 C199.377 371.6341 202.8716 368.8531 207 362 C226.4204 329.7621 225.2394 324.2575 244 291 C246.2358 287.0366 251 284 251 284 "/>
<path id="4" d="M304 133 C304 133 315.7471 120.2466 328 114 C339.1189 108.3315 341.6461 108.4634 355 107 C377.1753 104.5698 380.5549 103.989 401 106 C407.9879 106.6873 409.7856 109.2023 416 113 C417.7551 114.0725 418.5836 115.1957 419 117 C419.7986 120.4607 420.2559 122.5115 419 126 C416.3152 133.4577 415.2047 134.8126 410 142 C404.9866 148.9233 404.6525 149.7121 398 155 C385.6955 164.7805 371.0017 172.9938 371 173 C370.9991 173.0033 383.2352 167.7157 395 166 C406.2848 164.3543 413.9654 164.5083 419 166 C420.1266 166.3338 421.8654 170.3663 422 174 C422.314 182.4787 423.1668 186.1075 420 193 C416.0425 201.6133 413.1066 202.8934 405 211 C397.3847 218.6153 387.9674 224.9858 388 225 C388.1144 225.0497 418.7136 219.5868 428 221 C429.8091 221.2753 433.1887 226.8616 434 232 C435.8335 243.6124 435.9052 246.378 434 259 C432.0801 271.7191 430.8493 272.7152 426 285 C423.5447 291.22 419.9401 291.2652 419 297 C415.461 318.5877 418.9532 325.3275 416 346 C415.5391 349.2263 413.1461 352.4766 411 353 C399.2472 355.8665 386.0781 360.8319 375 356 C350.3504 345.2486 337.6792 329.5247 317 312 C315.6795 310.8809 316 306 316 306 "/>
<path id="5" d="M258 109 C258 109 273.5541 110.6719 288 110 C294.3369 109.7053 295.0035 108.9988 301 107 C303.5699 106.1434 305.4826 105.2419 306 104 C306.9161 101.8013 306.9425 98.2987 306 95 C305.3567 92.7485 304.1292 91.4904 302 90 C299.8992 88.5294 298.912 88.2773 296 88 C288.9439 87.328 287.4611 86.4924 281 88 C273.8354 89.6718 272.6784 90.826 266 95 C261.1743 98.0161 259.6073 99.8133 257 103 C256.4909 103.6222 257 106 257 106 "/>
</g>
</g>
</svg>
