<?xml version="1.0" encoding="utf-8"?>
<!DOCTYPE svg PUBLIC "-//W3C//DTD SVG 1.1//EN" "http://www.w3.org/Graphics/SVG/1.1/DTD/svg11.dtd">
<svg viewBox="0 0 800 800" preserveAspectRatio="xMinYMin meet" xmlns="http://www.w3.org/2000/svg" version="1.1">
<g fill="none" stroke="black" stroke-linecap="round" stroke-linejoin="round" stroke-width="1.8817">
<g transform="translate(238.9771,87.52) scale(1.5943) translate(-131,-108)">
<path id="0" d="M219,127C219,127 211.06398760293956,125.46800619853022 208,127C204.10037941444057,128.94981029277972 200.20431945944637,132.40168933665933 199,137C195.83024974642825,149.10268278636485 196.30919971047155,154.83859406466672 197,169C197.19910681127845,173.08168963120843 198.2558708688358,175.78358800944431 201,178C208.7172778296222,184.23318593931023 223,190 223,190"/>
<path id="1" d="M219,131C219,131 223.171249574117,129.2684998296468 225,130C230.74750133848937,132.29900053539575 234.61445517242785,133.81708338559653 239,139C244.00049207276677,144.90967244963346 244.8395602889438,147.8983510835392 247,156C248.46789457719848,161.50460466449425 247.85298183058845,163.02912718588095 247,169C246.446967824124,172.87122523113211 245.98761357005367,173.4222955739034 244,177C241.14423337635966,182.1403799225526 240.85366337171155,183.40324751973588 237,187C234.23165406766844,189.5837895368428 229,191 229,191"/>
<path id="2" d="M203,135C203,135 204.99563318777294,134.96724890829694 205,135C205.24563318777294,136.84224890829694 206.7968554432849,143.41153004128873 205,150C198.30262971139265,174.55702439156025 187,201 187,201"/>
<path id="3" d="M204,143C204,143 197.5775803031935,148.53914510433015 196,154C191.7992644681241,168.5410076103396 195.33763319314244,172.38452050468723 191,188C188.20811678306373,198.05077958097055 181,208 181,208"/>
<path id="4" d="M207,135C207,135 210.30325637507843,135.08887372125642 211,136C214.9280184071665,141.1366394555254 214.45853950347214,147.7053681151909 220,152C231.03760531142527,160.55414411635456 251,167 251,167"/>
<path id="5" d="M215,134C215,134 217.80010128476533,133.70015192714803 218,134C219.0994429337906,135.6491644006859 219.4603495483242,140.80049935474884 221,143C221.52708754201515,143.75298220287877 223.955148080519,143.0857545704541 225,144C226.98253953952806,145.73472209708706 226.577247419388,148.26946244241998 229,150C235.8505417796616,154.8932441283297 246,159 246,159"/>
<path id="6" d="M218,131C218,131 221.5466734398605,130.46425042892608 222,131C224.53450758623435,133.99532714736787 224.59659584951822,139.0222387864119 229,144C235.23006679406842,151.0426842019904 245,157 245,157"/>
<path id="7" d="M209,164C209,164 211.0014103551816,164.0028207103632 211,164C210.9950637568644,163.9901275137288 208,162 208,162"/>
<path id="8" d="M228,164L227,163"/>
<path id="9" d="M207,162L214,159"/>
<path id="10" d="M222,161L230,161"/>
<path id="11" d="M220,164L222,168"/>
<path id="12" d="M218,177C218,177 228.56081209308,180.27948321349456 229,180C229.307431534844,179.80436175055382 229,170 229,170"/>
<path id="13" d="M247,165C247,165 245.81341600418213,190.43254407249046 247,211C247.15923639743207,213.76009755548935 250,217 250,217"/>
<path id="14" d="M244,150C244,150 253.6737353901816,168.25992208096855 257,186C260.8400778422294,206.48041515855667 255.29890822436047,210.56926817789247 259,230C260.7433254179246,239.1524584441043 269,249 269,249"/>
<path id="15" d="M248,176C248,176 253.27755474767008,189.71256519631208 255,203C256.66644006496153,215.85539478684603 253.34802230887965,217.33483770141063 255,230C256.2103862310141,239.27962777110815 257.13647143097415,240.38135934601922 261,249C263.3402295465801,254.22051206544782 268,259 268,259"/>
<path id="16" d="M201,152C201,152 201.57486077812217,174.49538585706435 200,193C199.7602231648017,195.81737781358007 197.56938555099035,196.1530722450482 197,199C196.2235651577404,202.8821742112979 198.08330253510894,204.00532190178575 197,208C190.45938243397495,232.11852727471742 189.54383806564368,235.21643182495015 181,258C179.79852277201886,261.2039392746164 176,264 176,264"/>
<path id="17" d="M201,141C201,141 200.41195078708836,149.8755341908603 198,158C191.02324802896365,181.50063821822766 187.58090186360906,181.7462422349623 182,205C178.8736411275455,218.02649530189365 183.66860846523554,221.13097261247327 180,233C175.94448619472055,246.120779958257 165,260 165,260"/>
<path id="18" d="M201,175C201,175 188.42047038392363,230.45827525894668 188,232C187.98989860939523,232.03703843221748 185.909622772105,230.2840427162415 186,230C187.5153248543731,225.23755045768453 192.2296563482486,220.09196615995157 195,210C198.99113208467853,195.46087597724255 197.6780266040731,194.32502441311757 200,179C200.14623114898012,178.03487441673113 200,177 200,177C199.84721359549996,177 196.6719474237344,177.778277411392 196,179C192.50427352176265,185.35586632406787 191.05434483776077,187.92664363322333 189,197C185.20995147946837,213.7393809656814 187.7391272837276,215.17392722322575 184,232C181.87157370003197,241.57791834985613 181.3315341370534,242.33693172589318 177,251C174.11231057529773,256.77537884940454 169,262 169,262"/>
<path id="19" d="M205,183C205,183 207.63930908837068,187.15263027595398 208,191C209.04532309483514,202.15011301157483 209.325115464123,204.39907628701587 208,215C207.5306882731231,218.75449381501522 204,223 204,223"/>
<path id="20" d="M240,187C240,187 237.28155786348935,188.03018958131443 237,189C233.98511636061397,199.38459920232964 231.0004013914114,217.998461332923 231,218C230.99992120623787,218.0003020427548 231,212 231,212C231,212 229.9164334984663,221.31445210872536 231,223C231.86544597200418,224.34624928978428 240,226 240,226"/>
<path id="21" d="M199,227L205,225"/>
<path id="22" d="M195,232C195,232 209.48391637546038,225.46566246783067 223,222C227.86442942527475,220.7527104037757 230.10065515621423,220.4402620624857 234,222C240.38074610801308,224.55229844320524 241.2569173593757,228.29130454765664 248,232C250.2649841690302,233.2457412929666 254,233 254,233"/>
<path id="23" d="M198,236C198,236 201.7220989396928,235.62946525292375 202,236C202.88002002430613,237.17336003240817 203.9489597603288,240.1209417849874 204,244C204.43233593177243,276.8575308147053 206.30918009148405,279.5700351034564 203,312C201.49763025513985,326.72322349962945 199.67435661494744,328.12935049679515 194,342C191.02115421968347,349.2816230185515 187.71149830537578,348.9083890474787 185,356C181.65292283383627,364.75389412688974 183.90373181168314,366.9661676969858 181,376C179.6894230581497,380.0773504857564 176,384 176,384"/>
<path id="24" d="M257,235C257,235 252.4004235949229,240.35508629889443 252,245C250.15738960617298,266.3742805683932 247.57728267898352,274.5286511886959 252,293C254.4942672215357,303.41723368994326 262.9855111107165,306.09378300588605 269,316C269.9024956532687,317.4864634289131 268.2162575356956,319.0762684967074 269,321C273.1509323109454,331.18865203595686 276.22528795350626,332.7053307822899 280,343C281.15996272875605,346.16353471478925 279.1177951331988,347.47118053279513 280,351C281.92982314612766,358.71929258451075 286,367 286,367"/>
<path id="25" d="M198,237C198,237 202.09618663776422,258.92027966779926 198,277C188.3155587402078,319.74512004322076 178.39859193648292,322.2202022201467 169,365C164.6179640389265,384.94581885730014 166.87191278618243,388.0231403209411 169,409C170.24348706103834,421.25722960166354 171.20783050348785,423.5171292263797 176,434C178.3985123923779,439.2467458583267 185,444 185,444"/>
<path id="26" d="M256,238C256,238 253.89162072520833,261.4851984447395 258,281C261.4012400541609,297.1558902572641 267.07441143881146,297.90974403345075 272,314C274.1541024961082,321.03673482062004 271.2180453222969,322.67418632499846 273,330C275.5172704182528,340.34877838615023 275.8974322712916,341.27323026714964 281,351C291.6499917200368,371.3015467163201 293.9799858865437,370.85997420644196 305,391C308.26373997536313,396.96476616187055 309.0199806477614,397.6298742104488 310,404C311.8614892724086,416.09968027065593 312.7825557862525,418.5407128026625 311,430C309.60369017947033,438.9762774176909 303,449 303,449"/>
<path id="27" d="M167,398C167,398 166.56799437048178,404.43108921854025 168,410C170.92743341978434,421.3844632991613 171.01697700662697,422.44771601403363 176,433C179.2100179241542,439.7976850158559 180.16746295027477,441.43593723081505 185,446C187.90204574787677,448.7408209841058 189.7389676175565,449.57389676175563 194,450C208.05234083571784,451.40523408357177 212.36922073030195,447.4738441460604 225,450C231.4376229826203,451.28752459652406 234.91801477925384,458.0280987569652 239,459C240.5292393009875,459.36410459547323 242.72376288718595,455.68973412901346 246,455C251.01330242766176,453.94456790996594 253.49198298172362,453.56563094873024 258,455C262.593396128471,456.4615351317862 264.6471003721094,461.8882366790703 268,462C274.4873693125962,462.2162456437532 283.60898581310414,455.66222967793106 288,456C289.48672133887026,456.1143631799131 291.58048780487803,462.06439024390243 294,464C294.780487804878,464.62439024390244 296.6758196338546,464.5885246071757 298,464C300.2437500648575,463.0027777489522 301.9434087966289,461.937083872847 303,460C304.18509553891624,457.8273248453202 303.76783778061053,456.4824332908421 304,453C304.2628251540258,449.05762268961274 304.84221384005923,448.53729812824866 304,445C302.5060730694188,438.7255068915589 299,432 299,432"/>
<path id="28" d="M186,443C186,443 191.0117515364813,454.0117515364813 195,458C196.32941615450622,459.32941615450624 200.626944482296,459.739337586456 202,459C204.19035046871826,457.820580516844 205.22989301199533,452.3850534940023 208,451C211.46263373500582,449.2686831324971 216.70066336106728,448.90022112035575 220,450C222.3566690278091,450.785556342603 222.81512618239495,454.8767507882633 226,457C229.2844011244052,459.18960074960347 235,460 235,460"/>
<path id="29" d="M209,457L210,490"/>
<path id="30" d="M223,455C223,455 225.84635394259712,456.74010232929646 226,458C227.7457754928094,472.31535904103714 226.1201583802143,480.2093303938 228,496C228.2142036216817,497.79931042212615 231,500 231,500"/>
<path id="31" d="M262,456C262,456 265.3711044904496,456.7993812999493 266,458C269.4808635179764,464.6452848979549 271.46412818020275,467.78476908121655 273,477C274.751655463901,487.50993278340593 273,500 273,500"/>
<path id="32" d="M287,457C287,457 288.29700831724074,472.257324924135 291,485C291.52810551785,487.4896402984358 293.71284267566204,487.8463200674655 294,490C294.5246825185434,493.9351188890754 293,500 293,500"/>
<path id="33" d="M176,260C176,260 178.60456866305208,259.6326901391167 179,259C180.13471601037227,257.1844543834044 181,252 181,252"/>
<path id="34" d="M199,236C199,236 191.93165591814844,252.83737533956903 182,263C172.3426420306071,272.88194768961136 166.0754466938677,271.2246109440507 156,280C152.61496850206026,282.94825324014107 152.34099363483935,285.08302333892243 151,290C149.55172687437351,295.31033479396376 149.54853737470836,296.3567171838547 150,302C150.50145680862928,308.26821010786614 150.51043185883665,309.2548427511615 153,315C156.71404104975417,323.57086396097116 157.32919984184892,324.26709069343036 163,332C168.08041548415178,338.9278392965706 175,345 175,345"/>
<path id="35" d="M196,234C196,234 188.36497628904425,241.096344398446 180,245C166.67409140073391,251.21875734632417 164.3271949953572,249.00276225208927 151,255C145.19172994232196,257.6137215259551 144.49524695200515,258.5047530479949 140,263C135.97793693767963,267.0220630623204 135.25765817023856,267.98298184391433 133,273C131.12863315166538,277.15859299629915 131.34120524999957,278.05252387500616 131,283C130.3605302967695,292.2723106968422 128.69180645445908,293.9982623754581 131,302C135.53461910110823,317.7200128838419 136.43762759738675,321.47274147923 146,335C155.5132182542408,348.45772338404793 160.3381419295391,352.94864395739574 172,360C176.99322769193375,363.0191609300065 188.9999938439961,360.99999876879923 189,361C189.00000429488645,361.0000008589773 178.51500287895558,361.8157707809761 177,361C176.39788347118431,360.6757834075608 175.70366750350016,354.215514542909 176,354C176.92192332244394,353.32951031094984 187.99977832323836,353.00066503028495 188,353C188.00007389225388,352.99977832323833 177.20434656347481,351.12771660217174 177,351C176.98123347886457,350.98827092429036 180,348 180,348"/>
<path id="36" d="M259,239C259,239 263.6256010578569,238.40373501806843 264,239C270.7752341900411,249.79018778413948 274.603414383785,262.0559751716237 286,282C287.9336109271727,285.38381912255226 290.53023105264486,284.7105171178242 292,288C300.0765244607113,306.0760309358777 299.89226879403924,308.42498861432415 307,329C309.367378189072,335.852936863103 310.11391541006867,336.1328444280323 311,343C312.0377035086529,351.04220219205996 312.60310931471986,352.3852307550807 311,360C308.8608665181292,370.1608840388861 303,381 303,381"/>
<path id="37" d="M263,232C263,232 268.3147022752906,233.81120895190756 271,237C283.17415246493823,251.45680605211413 284.98566641528896,253.2017630191944 295,270C299.90539510958405,278.2284046999474 297.5070740968975,280.15029746358595 302,289C313.7931643077343,312.2289600000827 318.82710208410645,313.2568345697338 328,335C330.966222337586,342.03104554094454 330.10220985918295,345.560083450515 329,353C328.3985867365869,357.0595395280385 327.0854238139549,358.3360592209286 324,362C319.50093579319724,367.34263874557825 315.80477422022625,366.99147460673884 313,372C310.1049731439744,377.16969081433143 310,387 310,387"/>
<path id="38" d="M189,130C189,130 193.40471342631548,129.10117835657886 197,130C212.50467334901452,133.87616833725363 215.02062521239628,139.00147322945688 229,140C239.0724752836446,140.71946252026032 253,134 253,134"/>
<path id="39" d="M190,129C190,129 192.6066834800208,129.32574310860707 193,130C194.906989187778,133.26912432190517 196.1101489972749,135.6608939836494 197,141C197.9915482601794,146.94928956107637 197,154 197,154"/>
<path id="40" d="M257,138C257,138 254.28974721407616,141.19911026393044 254,144C252.94392682082622,154.20870739867982 255.35876385318073,159.66267519282408 254,167C253.7089926047133,168.57143993454815 249,171 249,171"/>
<path id="41" d="M252,137C252,137 253.95731769343294,135.7255992116399 254,135C254.3011473852231,129.88049445120754 253,119.99999999825392 253,120C253,120.00000000197887 254,137 254,137"/>
<path id="42" d="M256,135C256,135 252.6911182108626,135.6379552715655 252,135C248.53111821086261,131.79795527156548 245.60934157317834,128.74055146099235 243,123C241.3046650795734,119.27026317506147 241.7790437214448,113.29460837140694 242,113C242.07763328705994,112.89648895058674 248.41544971022193,113.83089942044388 249,115C251.33820115911223,119.67640231822445 253,135 253,135"/>
<path id="43" d="M255,137C255,137 258.5425120788387,137.8744927526968 260,137C266.47124636995624,133.11725217802623 274.5762906600801,126.08953830265122 275,125C275.06863827313344,124.82350158337114 270.1183204190676,120.19935400733368 267,119C265.60373712579064,118.46297581761178 262.8987164170878,119.01141194120339 262,120C259.6427110371467,122.59301785913865 258.39296696753575,125.2639123103784 257,130C256.14993297878584,132.89022787212806 257.00292572472506,136.99902475842498 257,137C256.998746117975,137.000417960675 254.28974721407616,133.80088973606956 254,131C252.94392682082622,120.79129260132018 253.291493678868,109.948392383113 254,108C254.0588088250742,107.83827573104595 261.90097939176354,108.58977176587758 262,109C262.93778340741573,112.88510268786527 261,137 261,137"/>
<path id="44" d="M202,259C202,259 206.3244480471822,271.8400648492792 207,284C207.77205937464893,297.8970687436809 207.71990604027252,299.19124625707803 205,313C201.37579530200801,331.39980846672853 197.7130373099324,331.434813450338 194,350C189.83230506027996,370.8384746986002 192.84236629156095,372.3909444361731 189,393C187.50278165336553,401.0305347683122 183.30038181373524,401.7908364703544 183,409C182.41155972899045,423.12256650422887 184.50019783265634,426.00118699593804 187,441C187.33160640995373,442.98963845972247 187.83431457505077,444.1257359312881 189,445C190.74852813742387,446.3113961030679 195,447 195,447"/>
<path id="45" d="M208,257C208,257 207.17517986383464,278.4415469362797 208,297C208.1049354506566,299.36104763977334 210,299.69254005753856 210,302C210,351.8411347571672 206.7579036834281,359.488083126076 208,410C208.16250052797673,416.6083548043866 211.84958377405044,417.0975026443026 213,424C214.719161326419,434.31496795851404 212.34668075837595,436.7414122469054 214,446C214.50052176719052,448.8029218962669 218,452 218,452"/>
<path id="46" d="M204,235C204,235 208.211072060369,235.1124560679151 209,236C210.5456547388689,237.73886158122752 209.8208670704047,240.81511341059144 212,244C215.86767572320846,249.65275682622774 222,255 222,255"/>
<path id="47" d="M240,229L233,255"/>
<path id="48" d="M232,254C232,254 226.24386370064982,249.80863635374618 225,250C223.65123213182548,250.20750274894993 219.79189019926437,253.6243294022069 219,256C218.14211895079694,258.5736431476092 218.77276290926926,263.8604227014643 220,265C222.1921639635954,267.0355808233386 232.0070149406006,269.39719402375976 233,269C233.52262371547337,268.7909505138106 235.24326922861078,262.405769200551 235,259C234.8959935906664,257.5439102693297 232,255 232,255"/>
<path id="49" d="M228,261C228,261 233.99580847095675,261.9832338838269 234,262C234.0029340703303,262.01173628132113 231.3289389791237,264.22368700695875 229,265C227.44737401391754,265.51754199536083 224.998246385496,265.01227530152795 225,265C225.02367379580394,264.83428342937236 229.99177307167326,258.00205673208165 230,258C230.00304701049137,257.99923824737715 229.60015194925435,263.48558404349626 229,264C228.41380507282133,264.50245279472454 224.0977196690041,264.470451286716 223,264C222.58182107847463,263.8207804622034 221.99359528126072,261.00240176952724 222,261C222.46113974922707,260.82707259403986 231,261 231,261"/>
<path id="50" d="M230,283L230,281"/>
<path id="51" d="M231,297C231,297 234.00032917548736,297.99967082451263 234,298C233.99934164902527,298.00065835097473 230,298 230,298"/>
<path id="52" d="M235,317C235,317 240.99983324712616,315.99983324712616 241,316C241.0001000517243,316.0001000517243 236,318 236,318"/>
<path id="53" d="M248,270C248,270 250.8847784129601,273.23468191104194 251,276C253.1461000361585,327.5064008678037 253,389.9699574651146 253,390C253,390.0015811860466 252.3113961030679,385.7485281374239 251,384C250.12573593128806,382.83431457505077 247.01222693388908,381.95633237896754 247,382C246.61318427332708,383.3814847381176 242.67061853728882,396.53704878708265 244,409C246.4501543400694,431.9701969381505 248.996787223006,440.25419593785886 255,457C255.90931337740883,459.5365057369825 261.4324652214533,461.86937210178774 263,462C263.68288643817874,462.05690720318153 267,458 267,458"/>
<path id="54" d="M257,317C257,317 261.25177678312775,326.48189581925106 263,336C265.65694432046473,350.4655857447525 265.27767033346487,351.01165941939587 266,366C267.2711500886308,392.3763643390888 263.72421741554745,393.98493299145315 267,419C268.992039868744,434.21194081586293 277,450 277,450"/>
<path id="55" d="M285,358C285,358 283.0665345272257,394.99851343128915 286,428C286.86311222534385,437.7100125351185 293,448 293,448"/>
<path id="56" d="M152,263C152,263 158.22759888765881,263.7274280417423 163,266C168.11981728527021,268.4380082310811 173,273 173,273"/>
<path id="57" d="M153,267C153,267 154.9271038213576,250.71982168993554 158,247C159.8548112069283,244.75470222319208 172,244 172,244"/>
<path id="58" d="M277,269C277,269 281.9483199919538,265.8921200221271 283,263C285.15010134978337,257.08722128809574 285.75986199577374,252.8256086342653 285,247C284.6305643335465,244.16765989052294 282.89781154094305,242.2159735313094 280,240C275.35691559917074,236.4494060464247 272.53129824572573,237.32295204686554 268,234C266.1580088432009,232.64920648501402 265,229 265,229"/>
<path id="59" d="M266,255L278,267"/>
<path id="60" d="M149,334C149,334 153.4115506519969,332.3730484786739 154,331C155.3076652177847,327.94878115850235 154.9998695653971,319.99960869619133 155,320C155.0002527170431,320.00075815112933 157.59730108941795,337.4913354244445 157,340C156.91841741217706,340.3426468688564 149.99999955751664,341.0000001106208 150,341C150.00000070187013,340.99999982453243 158.82306273639628,340.5071104132641 161,339C162.20340010224055,338.166876852295 163.00000119336408,331.9999904530874 163,332C162.99999746924513,332.0000202460389 159.66232915689292,346.32465831378584 160,347C160.10005062017987,347.20010124035974 167.1940083685982,347.4029958157009 170,346C171.8706610876012,345.0646694561994 174.02143696380992,340.12862178285956 174,340C173.9966504744047,339.9799028464282 169.38980249470757,339.4802633403899 169,340C167.4407900211697,342.0789466384404 165,352 165,352"/>
<path id="61" d="M315,347C315,347 326.5756290493636,348.49159677229295 331,348C331.6497327969466,347.92780746700594 333.0223078404647,345.00743594682154 333,345C332.7546137548882,344.9182045849627 322,345 322,345"/>
<path id="62" d="M311,345L332,340"/>
<path id="63" d="M314,358C314,358 324.0126817299759,355.86074852601126 328,354C328.6031237719364,353.718542239763 329,351 329,351"/>
<path id="64" d="M329,353L313,354"/>
</g>
</g>
</svg>
