<?xml version="1.0" encoding="utf-8"?>
<!DOCTYPE svg PUBLIC "-//W3C//DTD SVG 1.1//EN" "http://www.w3.org/Graphics/SVG/1.1/DTD/svg11.dtd">
<svg viewBox="0 0 800 800" preserveAspectRatio="xMinYMin meet" xmlns="http://www.w3.org/2000/svg" version="1.1">
<g fill="none" stroke="black" stroke-linecap="round" stroke-linejoin="round" stroke-width="2.597">
<g transform="translate(87.52,136.6157) scale(1.1552) translate(0,-13.1333)">
<path id="0" d="M217 85.1333 C217 85.1333 214.6037 113.5935 217 134.1333 C217.5779 139.0866 219.9123 140.5914 224 145.1333 C228.4658 150.0953 229.1594 150.5081 235 154.1333 C243.3055 159.2885 244.4508 161.2567 253 163.1333 C262.8436 165.2941 266.9753 165.5083 276 163.1333 C282.9182 161.3127 285.7578 158.9804 291 153.1333 C297.4525 145.9363 298.6604 143.7346 302 134.1333 C306.2047 122.0449 306.0507 120.4235 307 107.1333 C308.0038 93.0798 307.7632 90.8282 306 78.1333 C305.5428 74.8416 302 71.1333 302 71.1333 "/>
<path id="1" d="M260 72.1333 C260 72.1333 259.226 63.3756 256 58.1333 C252.2011 51.9601 249.9308 50.5034 244 46.1333 C241.5887 44.3566 240.2943 44.1333 237 44.1333 C223.3521 44.1333 216.5273 42.0635 208 46.1333 C201.1484 49.4034 198.4209 55.8859 193 65.1333 C190.8209 68.8507 190.6134 70.6229 191 75.1333 C192.0002 86.8027 191.6872 91.0002 196 100.1333 C198.6271 105.6966 208 111.1333 208 111.1333 "/>
<path id="2" d="M262 71.1333 C262 71.1333 267.5132 55.5472 275 42.1333 C279.1588 34.6821 280.3376 32.0535 286 28.1333 C290.8625 24.767 294.928 23.9165 301 24.1333 C306.386 24.3257 309.3114 25.5267 314 29.1333 C320.8295 34.3868 321.6121 36.3508 327 44.1333 C330.2466 48.8228 329.6619 49.5803 332 55.1333 C333.6527 59.0584 334.5546 59.2731 335 63.1333 C335.9606 71.4586 336.5441 72.9718 335 81.1333 C333.2565 90.3487 332.2689 91.311 328 100.1333 C324.9736 106.3878 324.0652 107.3906 320 112.1333 C318.8297 113.4987 316.8464 112.9242 316 114.1333 C314.2191 116.6775 313 122.1333 313 122.1333 "/>
<path id="3" d="M261 62.1333 C261 62.1333 261.4679 51.7968 259 45.1333 C257.1967 40.2644 255.4777 39.1632 251 35.1333 C245.9429 30.5819 245.1718 30.0958 239 27.1333 C233.1866 24.3429 232.3595 24.0755 226 23.1333 C219.4499 22.1629 218.1035 21.6537 212 23.1333 C202.8712 25.3464 199.8303 25.8968 193 31.1333 C186.8853 35.8212 184.5935 38.6986 182 46.1333 C177.9529 57.7351 175.6051 63.6983 178 74.1333 C181.2836 88.4404 196 107.1333 196 107.1333 "/>
<path id="4" d="M244 74.1333 C244 74.1333 238.6801 67.3142 233 64.1333 C227.4431 61.0215 220.0062 59.3558 219 60.1333 C216.7654 61.8601 212.8917 70.9656 211 81.1333 C209.1494 91.0802 211 103.1333 211 103.1333 "/>
<path id="5" d="M274 67.1333 C274 67.1333 286.6586 58.3041 299 52.1333 C302.7974 50.2346 305.247 49.4856 308 50.1333 C311.0378 50.8481 313.6299 53.0522 316 56.1333 C317.6651 58.2979 317.7723 59.7178 318 63.1333 C318.7342 74.1462 318.613 81.2291 318 86.1333 C317.9634 86.4265 315 87.1333 315 87.1333 "/>
<path id="6" d="M262 47.1333 C262 47.1333 267.7436 31.8085 275 22.1333 C278.1845 17.8874 280.7199 16.3213 286 15.1333 C298.3656 12.3511 301.4328 12.2673 315 13.1333 C323.6082 13.6828 328.0465 13.9303 333 18.1333 C340.6868 24.6554 341.5007 29.5791 348 41.1333 C350.2095 45.0613 350.342 45.7464 351 50.1333 C351.766 55.2398 352.5778 56.9258 351 61.1333 C347.3423 70.8871 344.6744 74.4562 339 82.1333 C337.918 83.5972 334 84.1333 334 84.1333 "/>
<path id="7" d="M246 28.1333 C246 28.1333 246.0375 24.6734 247 23.1333 C247.9411 21.6275 249.1054 20.5791 251 20.1333 C256.3285 18.8796 258.4996 18.5543 264 19.1333 C266.6941 19.4169 268.112 20.2454 270 22.1333 C272.3075 24.4409 274 29.1333 274 29.1333 "/>
<path id="8" d="M243 99.1333 C243 99.1333 244.237 107.3703 245 108.1333 C245.3468 108.4802 250.8687 107.4616 251 107.1333 C251.3166 106.3417 250.3836 101.1773 249 98.1333 C248.5303 97.1001 246 96.1333 246 96.1333 "/>
<path id="9" d="M271 94.1333 C271 94.1333 270.4596 100.0526 271 101.1333 C271.2316 101.5965 274.6957 102.3942 275 102.1333 C275.8715 101.3863 277.8108 96.8363 278 95.1333 C278.0459 94.7205 276 93.1333 276 93.1333 "/>
<path id="10" d="M255 114.1333 C255 114.1333 255.9241 123.8184 257 125.1333 C257.4876 125.7293 264 125.1333 264 125.1333 "/>
<path id="11" d="M251 139.1333 C251 139.1333 260.8599 141.1267 265 139.1333 C270.6954 136.3911 278 126.1333 278 126.1333 "/>
<path id="12" d="M250 141.1333 C250 141.1333 255.5746 148.0371 260 150.1333 C262.7924 151.4561 267.4592 151.4309 269 150.1333 C273.0188 146.7491 275.8238 141.4386 279 134.1333 C280.0927 131.6202 279 127.1333 279 127.1333 "/>
<path id="13" d="M234 155.1333 C234 155.1333 240.8851 163.9214 244 172.1333 C245.8544 177.0223 245 184.1333 245 184.1333 "/>
<path id="14" d="M290 156.1333 L288 181.1333 "/>
<path id="15" d="M242 185.1333 C242 185.1333 232.046 186.2767 223 189.1333 C213.3901 192.168 212.6086 192.4979 204 197.1333 C200.2213 199.168 198.9209 200.252 197 203.1333 C195.7994 204.9342 197.1964 206.7406 196 209.1333 C192.5949 215.9435 190.4104 216.0284 187 223.1333 C184.6842 227.9578 184.1834 228.8135 184 234.1333 C183.2241 256.6352 181.7701 261.4311 185 281.1333 C186.0598 287.598 189.071 290.8765 194 295.1333 C198.0473 298.6287 206.9235 300.0874 207 300.1333 C207.0115 300.1402 204.7724 301.354 204 301.1333 C202.6178 300.7384 200 298.1333 200 298.1333 "/>
<path id="16" d="M291 182.1333 C291 182.1333 312.853 174.0243 328 173.1333 C333.508 172.8093 337.0502 175.4861 342 179.1333 C344.9274 181.2904 346.2906 183.4442 347 187.1333 C348.425 194.5433 349.1415 197.2813 347 205.1333 C340.7054 228.2136 336.3366 229.1226 329 253.1333 C325.5412 264.453 328.2585 265.8541 325 277.1333 C321.943 287.7151 316 298.1333 316 298.1333 "/>
<path id="17" d="M241 223.1333 C241 223.1333 230.8199 233.4334 225 243.1333 C222.7979 246.8036 223.396 248.1832 223 253.1333 C222.4153 260.4416 221.0191 262.0492 223 268.1333 C227.2996 281.3393 237 296.1333 237 296.1333 "/>
<path id="18" d="M291 239.1333 C291 239.1333 295.711 252.3805 298 265.1333 C299.0917 271.2158 299.5615 272.7548 298 278.1333 C295.5241 286.6616 289 296.1333 289 296.1333 "/>
<path id="19" d="M243 287.1333 C243 287.1333 259.7455 288.2229 275 287.1333 C279.8692 286.7855 285 284.1333 285 284.1333 "/>
<path id="20" d="M231 296.1333 C231 296.1333 232.0262 302.2076 231 307.1333 C229.6901 313.4211 229.1206 314.0406 226 320.1333 C218.7413 334.305 216.7286 333.835 210 348.1333 C204.9312 358.9044 207.2452 360.9052 202 371.1333 C197.7125 379.4939 192.4252 379.5114 190 387.1333 C186.4958 398.1467 192.3953 403.9178 188 415.1333 C179.3601 437.18 172.2812 439.3768 161 461.1333 C159.3984 464.2222 160 469.1333 160 469.1333 "/>
<path id="21" d="M289 281.1333 C289 281.1333 305.6827 298.5859 320 317.1333 C327.4143 326.7382 327.9674 327.2004 333 338.1333 C342.2067 358.1342 340.3572 359.5236 349 380.1333 C353.2928 390.3699 353.2483 390.7868 359 400.1333 C365.0731 410.0022 369.7759 409.8194 373 419.1333 C377.6489 432.5635 372.5191 441.7566 377 452.1333 C379.2551 457.3557 391.8784 462.9712 392 463.1333 C392.0191 463.1588 386 464.1333 386 464.1333 "/>
<path id="22" d="M295 177.1333 C295 177.1333 303.3926 178.437 308 176.1333 C318.7505 170.7581 318.8176 165.2245 331 159.1333 C355.5582 146.8542 358.664 150.2383 384 138.1333 C403.0969 129.0093 404.3363 128.2227 421 116.1333 C428.829 110.4534 430.4562 109.2473 435 101.1333 C443.5227 85.9142 441.0728 80.9538 449 66.1333 C451.3907 61.6637 453.6068 59.5206 458 58.1333 C469.5346 54.4908 475.8701 52.5102 487 54.1333 C495.07 55.3102 498.972 59.3276 506 65.1333 C508.6545 67.3262 509.8976 69.4968 510 73.1333 C511.692 133.199 507.9883 150.0013 510 207.1333 C510.1227 210.6193 513.4671 210.9945 515 215.1333 C518.2444 223.8933 516.4631 226.1753 520 234.1333 C521.8518 238.2999 526.7611 238.842 527 242.1333 C530.261 287.0633 525.0233 312.221 529 358.1333 C529.4032 362.7887 535.5473 363.6147 538 369.1333 C540.8342 375.5104 541.4539 380.3675 541 385.1333 C540.8418 386.7941 538.6003 389.147 536 390.1333 C526.093 393.8912 520.0424 396.7854 512 396.1333 C507.304 395.7526 504.5771 392.2254 499 387.1333 C493.4915 382.1038 494.6493 379.8714 489 375.1333 C479.7813 367.4015 477.9952 366.3033 468 361.1333 C464.9856 359.5741 462.2328 359.2139 460 360.1333 C456.3825 361.6229 454.7007 366.7699 451 368.1333 C448.0166 369.2325 444.7126 369.067 441 367.1333 C423.1795 357.8518 414.3349 345.967 403 343.1333 C399.007 342.1351 393.6622 350.7512 385 353.1333 C375.7012 355.6905 371.8532 351.3262 363 354.1333 C353.9533 357.0018 349.129 364.4921 344 366.1333 C342.9401 366.4725 338 362.1333 338 362.1333 "/>
<path id="23" d="M240 182.1333 C240 182.1333 218.2567 175.0994 198 166.1333 C188.149 161.7731 187.3272 161.5572 179 155.1333 C170.4131 148.5092 171.5715 146.0832 163 139.1333 C153.429 131.3731 149.2663 133.6573 142 125.1333 C125.2755 105.5142 125.5731 92.7064 111 78.1333 C106.1423 73.2756 100.3503 74.6554 90 73.1333 C83.8094 72.223 83.279 72.4357 77 73.1333 C70.077 73.9026 67.0179 72.9677 63 76.1333 C53.8853 83.3146 49.5452 87.8019 44 99.1333 C39.5434 108.2403 43.1833 111.5674 40 123.1333 C28.3129 165.5965 22.7158 166.057 14 208.1333 C8.6365 234.0262 13.7341 236.5735 11 263.1333 C10.337 269.5738 7.9252 269.6568 7 276.1333 C5.0035 290.1091 4.1479 291.5003 5 305.1333 C5.5699 314.2515 8.5846 314.7916 10 324.1333 C11.0029 330.7528 11.306 331.7897 10 338.1333 C7.9998 347.8487 4.6031 348.1939 3 358.1333 C-0.22339 378.1183 -0.21443 395.6304 0 400.1333 C0.0012197 400.1589 3.6069 401.0621 5 400.1333 C19.303 390.598 27.3145 380.9736 39 374.1333 C40.384 373.3232 43.4087 374.3394 46 376.1333 C55.2953 382.5686 55.6101 386.7271 65 392.1333 C70.2345 395.1471 72.0861 394.1456 79 395.1333 C82.3543 395.6125 83.1445 396.0351 86 395.1333 C91.668 393.3434 93.3369 392.8147 98 389.1333 C101.9299 386.0308 101.1 383.7896 105 380.1333 C108.6947 376.6695 110.1408 375.2053 114 374.1333 C117.1557 373.2568 119.6968 373.6882 123 375.1333 C126.3688 376.6072 126.2498 379.0878 130 381.1333 C136.6708 384.7719 137.7597 385.6353 145 387.1333 C151.2411 388.4246 152.8331 388.5844 159 387.1333 C168.639 384.8653 169.3743 381.5398 179 379.1333 C184.2504 377.8207 187.5335 378.3905 191 379.1333 C191.7634 379.2969 193 382.1333 193 382.1333 "/>
<path id="24" d="M64 363.1333 C64 363.1333 62.6634 350.3857 64 338.1333 C71.5901 268.5578 82 198.1333 82 198.1333 "/>
<path id="25" d="M127 349.1333 C127 349.1333 130.4008 344.0269 131 339.1333 C133.2418 320.8254 132.4693 319.6357 133 300.1333 C134.4683 246.175 135 192.1333 135 192.1333 "/>
<path id="26" d="M397 324.1333 C397 324.1333 395.98 279.9924 397 236.1333 C397.476 215.6642 400 195.1333 400 195.1333 "/>
<path id="27" d="M499 340.1333 C499 340.1333 503.5286 318.1663 500 299.1333 C487.6108 232.3069 466 162.1333 466 162.1333 "/>
</g>
</g>
</svg>
