<?xml version="1.0" encoding="utf-8"?>
<!DOCTYPE svg PUBLIC "-//W3C//DTD SVG 1.1//EN" "http://www.w3.org/Graphics/SVG/1.1/DTD/svg11.dtd">
<svg viewBox="0 0 800 800" preserveAspectRatio="xMinYMin meet" xmlns="http://www.w3.org/2000/svg" version="1.1">
<g fill="none" stroke="black" stroke-linecap="round" stroke-linejoin="round" stroke-width="2.1745">
<g transform="translate(87.52,104.765) scale(1.3796) translate(-20,-51)">
<path id="0" d="M255 141 C255 141 251.545 140.8175 251 140 C248.3246 135.9869 249.2898 130.9817 245 126 C235.2578 114.6865 233.4451 111.2895 220 104 C194.3425 90.0893 185.7803 94.2113 162 81 C154.123 76.6239 151.5394 71.5844 148 64 C146.0448 59.8103 148 51 148 51 "/>
<path id="1" d="M147 54 C147 54 140.968 60.9155 140 67 C137.8738 80.3644 138.5919 84.6232 140 98 C140.3371 101.2023 141.8471 101.7707 144 105 C144.7424 106.1135 145.8831 107 146 107 C146.0584 107 146.9929 104.9858 147 105 C147.0783 105.1566 150.379 116.1633 152 119 C152.1648 119.2885 154.7105 119.2895 155 119 C155.4825 118.5175 155.9889 114.9833 156 115 C156.0981 115.1471 163.5611 131.5961 167 137 C167.2264 137.3557 169.9052 137.1895 170 137 C170.537 135.9261 170.9912 129.0088 171 129 C171.0029 128.9971 171.6109 132.8424 173 134 C176.1911 136.6592 181.08 136.44 183 139 C184.92 141.56 183.6212 144.8294 185 150 C185.542 152.0324 186.1542 153.4361 187 154 C187.725 154.4833 190.75 154.25 191 154 C191.25 153.75 190.9992 149.9982 191 150 C191.0051 150.0109 195.6551 165.7437 199 171 C199.6177 171.9707 202.6836 170.8418 205 172 C208.92 173.96 209.436 176.218 213 178 C214.296 178.648 216.6 178.2 217 178 C217.1 177.95 217 176 217 176 C217 176 214.8932 186.0308 217 192 C219.9278 200.2955 224.6992 205.1616 229 210 C229.5334 210.6001 233 210 233 210 "/>
<path id="2" d="M250 133 C250 133 250.2856 149.1282 253 157 C253.8039 159.3312 260 162 260 162 "/>
<path id="3" d="M263 159 C263 159 267.624 150.1641 271 149 C277.1927 146.8646 284.5411 147.8066 292 149 C293.6481 149.2637 295.8067 151.4537 296 153 C296.8537 159.8295 295 173 295 173 "/>
<path id="4" d="M293 163 C293 163 292.0024 170.259 293 174 C293.4595 175.7231 296.5987 176.2945 297 178 C298.0558 182.4872 298.0674 189.7683 297 191 C295.9107 192.2569 284 193 284 193 "/>
<path id="5" d="M293 160 C293 160 287.2286 160.2588 283 162 C279.4608 163.4573 277.1606 164.6788 276 167 C274.4298 170.1405 276.6711 174.0312 275 178 C273.3982 181.8042 268 186 268 186 "/>
<path id="6" d="M307 182 C307 182 306.2107 170.7535 308 163 C308.7587 159.7125 310.0217 158.7193 313 156 C321.0481 148.6517 321.6178 147.9942 331 142 C339.2699 136.7164 339.7459 135.6734 349 133 C383.5506 123.0187 386.1825 126.5696 421 116 C441.3781 109.8138 442.9183 108.5727 461 99 C467.0128 95.8168 472 89 472 89 "/>
<path id="7" d="M473 88 C473 88 473.5202 109.1719 468 120 C463.2536 129.3102 457.0262 132.208 447 139 C443.6388 141.2769 437.6867 140.0845 437 141 C436.3314 141.8915 438.5627 150.6666 438 151 C434.3954 153.1361 410.0017 156.9996 410 157 C409.9998 157.0001 413.8462 156.7692 414 157 C414.3462 157.5192 414.2196 162.9394 414 163 C410.0787 164.0817 385.1141 164.9762 385 165 C384.983 165.0035 389.5848 166.9619 390 168 C390.5481 169.3703 389.3134 174.957 389 175 C381.0078 176.097 361.475 172.1104 339 175 C329.4899 176.2227 319 184 319 184 "/>
<path id="8" d="M326 179 C326 179 316.7071 182.2491 310 187 C305.5501 190.152 302 196 302 196 "/>
<path id="9" d="M282 196 C282 196 281.5115 208.6036 282 213 C282.0351 213.3161 284 214 284 214 "/>
<path id="10" d="M268 195 C268 195 269.7649 210.7928 269 215 C268.8877 215.6176 264 217 264 217 "/>
<path id="11" d="M283 212 C283 212 300.7258 208.9027 314 212 C327.8166 215.2239 329.1988 223.3164 343 226 C361.7077 229.6376 365.7847 227.9884 386 226 C394.7397 225.1404 404 220 404 220 "/>
<path id="12" d="M266 216 C266 216 255.1836 218.1999 246 222 C241.3096 223.9409 240.305 224.2944 237 228 C224.6523 241.8444 225.8671 245.1914 213 259 C206.0459 266.463 204.7762 267.918 196 272 C184.8592 277.1818 182.8596 277.4413 170 279 C150.7832 281.3293 130 280 130 280 "/>
<path id="13" d="M131 280 L131 284 "/>
<path id="14" d="M139 283 C139 283 129.0663 282.9204 129 283 C128.9854 283.0175 132.1382 288.8169 134 289 C152.651 290.8345 165.0721 291.1995 190 289 C195.5774 288.5079 197.199 286.9813 202 283 C216.7685 270.7529 217.1005 265.5094 231 255 C234.9529 252.0112 240.8212 252.9078 243 252 C243.137 251.9429 243 250 243 250 "/>
<path id="15" d="M273 244 C273 244 260.6643 244.8246 260 246 C258.5076 248.6404 257.7649 260.0712 260 267 C261.4077 271.3638 266.8387 271.8932 270 277 C272.5105 281.0554 273 288 273 288 "/>
<path id="16" d="M269 234 C269 234 275.864 239.4092 282 241 C287.7985 242.5033 290.1306 242.276 296 241 C300.2289 240.0807 300.9656 236.7335 305 236 C310.2188 235.0511 317.5888 236.146 318 237 C319.4727 240.0586 320.5127 253.2004 318 263 C316.4958 268.8662 311.8243 269.7421 308 276 C306.8772 277.8373 307.2063 278.5246 307 281 C306.7159 284.4087 306.8696 287.837 307 288 C307.0224 288.0279 311 286 311 286 "/>
<path id="17" d="M323 237 C323 237 354.5183 240.346 382 238 C393.0473 237.0569 396.5886 235.5275 405 230 C411.5063 225.7244 413.2674 221.5321 417 215 C418.0246 213.2069 417.3689 209.4426 417 209 C416.7439 208.6926 413.359 208.2073 412 209 C408.9876 210.7572 405 216 405 216 "/>
<path id="18" d="M189 287 C189 287 198.3141 284.6757 204 282 C205.1179 281.4739 206 279 206 279 "/>
<path id="19" d="M234 256 C234 256 242.5057 243.4636 249 240 C253.1394 237.7923 264 240 264 240 "/>
<path id="20" d="M262 240 L264 245 "/>
<path id="21" d="M275 234 C275 234 267.9807 234.324 266 236 C263.8483 237.8207 262 245 262 245 "/>
<path id="22" d="M271 240 C271 240 274 240 274 240 C274 240 270.4707 239.6234 270 240 C269.5058 240.3954 269 244 269 244 C269 244 270.2813 240.9846 270 240 C269.7079 238.9776 267.0658 236.9624 267 237 C266.5907 237.2339 262.9994 243.9998 263 244 C263.0019 244.0006 266.8626 239.1765 270 238 C273.0526 236.8553 275.4747 237.0599 279 238 C281.768 238.7381 282.2981 241.614 285 242 C294.0455 243.2922 299.2516 243.4349 307 242 C309.0871 241.6135 309.8014 237.9161 312 237 C314.1727 236.0947 318.4206 236.5861 319 237 C319.2956 237.2111 319.0247 241.9835 319 242 C318.9926 242.0049 317.2946 239.3531 316 239 C313.2875 238.2602 310.6228 238.1257 308 239 C306.2515 239.5828 304 243 304 243 C304 243 307.4493 238.4229 309 238 C310.3292 237.6375 314.9987 240.0007 315 240 C315.0007 239.9997 312.4748 237.0983 311 237 C307.1843 236.7456 304.312 237.46 300 239 C298.5013 239.5352 298.261 241.7478 297 242 C292.7968 242.8406 289.508 243.4344 285 242 C280.4066 240.5385 277.7726 235.4893 275 235 C273.4468 234.7259 267.992 238.9933 268 239 C268.0303 239.0253 280.9991 239.9997 281 240 C281.0004 240.0001 274.6192 241.0885 274 241 C273.9742 240.9963 274 239 274 239 "/>
<path id="23" d="M305 238 C305 238 302.3822 240.6051 301 241 C300.2276 241.2207 298 240 298 240 "/>
<path id="24" d="M267 243 L272 243 "/>
<path id="25" d="M273 239 C273 239 262.6917 242.4625 261 245 C259.55 247.175 260.2303 251.3553 261 257 C261.6677 261.8963 263.9995 267.0019 264 267 C264.0012 266.9954 262.7956 252.8288 264 245 C264.2527 243.3576 268 241 268 241 C268 241 261.6323 245.1547 261 248 C259.5383 254.5775 259.7801 262.7529 262 268 C263.112 270.6285 270.6691 271.4712 272 274 C273.5362 276.9187 271.7558 285.4126 272 287 C272.0058 287.0376 273.975 287.075 274 287 C274.225 286.325 274.8393 283.3979 274 281 C271.699 274.4258 268.4545 273.6492 267 267 C265.3143 259.2938 267 249 267 249 "/>
<path id="26" d="M314 238 C314 238 315.999 237.9844 316 238 C316.249 241.9844 318.3318 257.7582 316 270 C315.1603 274.4085 310.4958 275.0085 308 280 C306.039 283.9219 306.0051 289.9898 306 290 C305.9984 290.0032 305.164 287.9675 305 286 C304.6788 282.1453 303.7608 280.7263 305 278 C307.8728 271.6799 313.169 270.4086 315 264 C317.281 256.0164 315.6602 250.5924 315 243 C314.9317 242.214 313 241 313 241 "/>
<path id="27" d="M270 245 C270 245 266.0025 251.0033 266 251 C265.9924 250.9899 267 241 267 241 "/>
<path id="28" d="M234 210 C234 210 234.2234 214.9127 235 216 C235.4461 216.6246 239 217 239 217 "/>
<path id="29" d="M330 217 C330 217 334.9601 218.02 337 217 C340.0599 215.47 340.1035 212.7059 344 210 C357.633 200.5326 366.0006 198.7581 373 192 C374.4571 190.5931 371.4844 184.4482 373 182 C375.8868 177.3368 386 171 386 171 "/>
<path id="30" d="M210 152 C210 152 215.3406 152.7347 219 155 C225.1311 158.7954 226.4967 159.4245 231 165 C236.3212 171.5882 236.7499 173.1997 240 181 C241.3851 184.3242 239.6392 186.2785 241 189 C242.4408 191.8816 244.0018 193.5891 247 195 C251.0576 196.9095 258 197 258 197 "/>
<path id="31" d="M264 161 C264 161 258.3272 163.4731 258 165 C256.5144 171.9329 260.4582 181.4018 258 189 C256.6112 193.2926 247 199 247 199 "/>
<path id="32" d="M249 200 C249 200 246.5493 203.7253 244 205 C240.6009 206.6995 238.0678 205.247 235 207 C232.4507 208.4568 232.0446 211.4666 230 213 C229.3544 213.4842 227 213 227 213 "/>
<path id="33" d="M228 213 C228 213 223.1258 213.1779 221 215 C214.2394 220.7948 214.4182 224.1999 207 231 C202.989 234.6768 202.1488 234.7614 197 237 C190.9812 239.6169 190.3528 240.2526 184 241 C174.0963 242.1651 163 241 163 241 "/>
<path id="34" d="M172 257 C172 257 185.1658 259.3938 193 257 C199.8497 254.907 201.8882 252.1118 208 246 C212.7014 241.2986 211.319 237.932 216 234 C222.3587 228.6587 233 225 233 225 "/>
<path id="35" d="M260 268 C260 268 256.9725 273.2046 253 276 C244.2746 282.1401 242.767 284.6824 233 287 C215.8455 291.0706 211.8957 287.3347 194 290 C190.1004 290.5808 186 294 186 294 "/>
<path id="36" d="M167 240 C167 240 150.3708 237.1716 140 240 C132.2132 242.1237 128.2575 246.7425 123 252 C121.7309 253.2691 121.4167 257.3107 122 258 C123.9413 260.2943 128.1718 263.135 134 265 C139.4516 266.7445 141.5378 264.4394 147 266 C150.8764 267.1075 151.3211 270.343 155 271 C163.2739 272.4775 167.2692 269.7631 175 271 C177.1801 271.3488 180 275 180 275 "/>
<path id="37" d="M311 177 C311 177 308.5694 180.1531 308 183 C307.2236 186.8822 309.0536 188.6284 308 192 C306.9976 195.2077 305.4308 196.8393 303 199 C301.941 199.9413 299 200 299 200 "/>
<path id="38" d="M297 206 L304 196 "/>
<path id="39" d="M285 172 L288 172 "/>
<path id="40" d="M308 283 C308 283 308.5007 286.6771 310 288 C315.5708 292.9154 318.9694 292.1928 325 298 C331.7107 304.4622 332.7656 305.7804 337 314 C340.7369 321.2539 340.959 322.6721 342 331 C343.3585 341.8676 343.1821 343.066 342 354 C341.2583 360.861 340.2936 361.1192 338 368 C334.8089 377.5733 335.8766 378.7602 331 387 C321.9349 402.317 317.5565 402.2829 309 417 C306.0517 422.071 306.6638 423.5828 306 430 C305.202 437.7139 303.7792 439.754 306 446 C310.8148 459.5416 322 475 322 475 "/>
<path id="41" d="M308 284 C308 284 327.0242 289.888 339 299 C347.5322 305.4919 348.7425 309.0691 354 319 C356.9332 324.5404 356.4813 326.0834 357 333 C357.9481 345.6419 359.1568 346.7783 357 359 C351.8862 387.9781 347.4962 388.8015 342 418 C339.6718 430.3684 338.8397 433.1984 341 444 C342.7584 452.792 344.7634 456.1397 351 463 C358.1449 470.8594 371 477 371 477 "/>
<path id="42" d="M286 291 C286 291 289.3323 290.3991 290 291 C292.3537 293.1183 294.3593 295.4059 296 300 C299.008 308.4225 299.1457 309.6024 300 319 C301.103 331.133 302.4789 333.0515 300 344 C296.9542 357.4522 295.1705 358.8541 288 372 C277.3952 391.4421 274.4554 390.8918 264 410 C260.3734 416.6279 260.5851 417.7086 259 425 C258.2117 428.626 257.7727 430.1772 259 433 C261.9682 439.8269 265.0061 440.2785 269 448 C272.2839 454.3488 274 462 274 462 "/>
<path id="43" d="M274 294 C274 294 267.9139 306.8394 260 318 C248.6339 334.0291 246.1018 333.2426 235 349 C231.0659 354.584 229.8747 355.752 229 362 C226.6527 378.7668 226.2576 381.3272 228 399 C229.6426 415.661 229.2085 418.7804 236 433 C243.9841 449.7168 247.4581 450.507 260 466 C264.0895 471.0517 265.2513 472.3618 270 475 C272.7085 476.5047 278 476 278 476 "/>
<path id="44" d="M274 462 C274 462 273.7726 468.7836 275 474 C275.5724 476.4327 277.6836 478.8102 278 479 C278.0422 479.0253 280 477 280 477 "/>
<path id="45" d="M265 286 C265 286 261.0138 284.9931 259 286 C250.9446 290.0277 247.7515 290.8734 241 298 C230.995 308.5608 228.6455 310.7548 223 324 C216.5602 339.1088 217.4668 341.7325 215 359 C213.5667 369.0329 216.1139 369.9753 215 380 C214.1808 387.3727 214.4543 388.6836 211 395 C197.7449 419.2379 196.2406 423.1696 180 444 C175.1846 450.1763 172.8515 450.336 165 454 C150.9738 460.5456 135 465 135 465 "/>
<path id="46" d="M171 476 C171 476 182.2704 477.4549 191 476 C195.7286 475.2119 196.4783 474.0145 201 471 C208.2348 466.1768 209.264 466.1773 215 460 C221.7262 452.7564 221.9599 451.8202 227 443 C231.7685 434.6551 233.4569 433.7958 235 425 C238.1295 407.1619 232.5647 402.5093 237 386 C240.6233 372.5133 243.6535 370.1252 253 358 C261.3858 347.1212 264.4915 348.5951 274 338 C281.726 329.391 281.5992 328.7536 288 319 C291.9952 312.9121 292.9683 312.3491 295 306 C296.6424 300.8674 296 294 296 294 "/>
<path id="47" d="M59 459 C59 459 74.5019 461.6458 86 458 C112.4868 449.6017 115.5657 447.3068 141 433 C154.3501 425.4905 155.6997 424.4291 166 413 C191.25 384.9828 187.5154 378.2348 214 352 C238.8139 327.4201 242.5855 328.741 272 308 C281.1708 301.5334 292 297 292 297 "/>
<path id="48" d="M255 289 C255 289 250.2925 288.0122 247 289 C241.3204 290.7039 240.3431 291.3667 235 295 C228.1948 299.6275 226.7638 299.695 222 306 C210.5912 321.0998 210.3888 322.5325 201 340 C189.012 362.3033 191.6603 364.8994 179 386 C171.3011 398.8314 170.0819 400.3033 159 410 C147.1748 420.347 144.9301 421.8708 131 428 C121.7857 432.0543 119.3759 428.7061 109 432 C88.4534 438.5227 88.7683 441.2328 68 448 C44.5252 455.6491 20.8614 460.6868 20 461 C19.9525 461.0173 22.4032 463.9699 24 464 C43.2729 464.3636 50.0706 460.6512 73 462 C82.078 462.534 82.7674 467.2711 92 468 C119.024 470.1335 126.11 465.8871 149 468 C152.435 468.3171 152.8229 471.9114 157 474 C162.3163 476.6582 163.2852 477.9058 169 478 C249.509 479.3271 339 477 339 477 "/>
</g>
</g>
</svg>
