<?xml version="1.0" encoding="utf-8"?>
<!DOCTYPE svg PUBLIC "-//W3C//DTD SVG 1.1//EN" "http://www.w3.org/Graphics/SVG/1.1/DTD/svg11.dtd">
<svg viewBox="0 0 800 800" preserveAspectRatio="xMinYMin meet" xmlns="http://www.w3.org/2000/svg" version="1.1">
<g fill="none" stroke="black" stroke-linecap="round" stroke-linejoin="round" stroke-width="0.87846">
<g transform="translate(154.1141,87.52) scale(3.4151) translate(-202,-89)">
<path id="0" d="M277 122 C277 122 262.616 118.4998 253 121 C240.9942 124.1215 238.3384 127.0325 227 135 C220.852 139.3202 220.622 140.5694 216 147 C209.3536 156.2472 206.0866 157.461 204 167 C199.9016 185.7354 201.7098 189.2376 202 211 C202.2048 226.3617 201.3114 228.9479 205 242 C207.0646 249.3056 210.5696 252.2742 215 257 C216.0338 258.1027 218.1934 256.8503 220 258 C228.1006 263.155 229.3995 269.6863 237 271 C262.3414 275.38 275.5297 277.1482 301 272 C314.5909 269.2529 321.7047 263.1966 331 252 C340.2367 240.874 342.2458 234.9742 345 219 C349.2131 194.5643 346.4203 191.0616 346 165 C345.9375 161.1223 345.2903 160.871 344 157 C341.8164 150.4491 342.6858 149.1337 339 144 C329.5549 130.8443 326.144 122.0278 316 118 C302.1807 112.5129 292.2858 115.899 271 117 C264.7457 117.3235 258 121 258 121 "/>
<path id="1" d="M249 94 C249 94 249.224 99.67 251 103 C252.6231 106.0433 255.1193 105.7515 257 109 C260.1554 114.4503 259.7141 118.4442 262 122 C262.5035 122.7832 266 123 266 123 "/>
<path id="2" d="M328 93 C328 93 323.9043 94.2609 323 96 C318.7755 104.124 315 118 315 118 "/>
<path id="3" d="M249 94 C249 94 248.9393 89.006 249 89 C255.3143 88.381 275.6423 86.7565 300 89 C312.248 90.1281 325 96 325 96 "/>
<path id="4" d="M273 195 C273 195 269.08 198 269 198 C269 198 268.9979 195.0021 269 195 C269.0007 194.9993 269.9905 197.0032 270 197 C270.0857 196.9714 272 194 272 194 "/>
<path id="5" d="M275 129 L275 148 "/>
<path id="6" d="M284 132 C284 132 288.2669 130 289 130 C289.1466 130 290 131.1485 290 132 C290 136.2573 290.2694 139.2496 289 142 C288.356 143.3954 283.9898 144.9975 284 145 C284.0406 145.0102 301 145 301 145 "/>
<path id="7" d="M325 188 C325 188 329.9575 184.9575 330 185 C330.2127 185.2127 331.4132 191.7274 331 194 C330.8807 194.656 327.9902 195.9941 328 196 C328.0467 196.028 335.6017 196.431 336 197 C336.5009 197.7155 336.1002 204.4872 335 206 C334.198 207.1028 328 208 328 208 "/>
<path id="8" d="M273 253 C273 253 268.2055 254.332 268 255 C267.3789 257.0186 267.9621 264.6161 269 266 C269.6183 266.8245 276.8513 267.0744 277 267 C277 267 275.8458 263.4833 275 263 C274.0132 262.4361 270 263 270 263 "/>
<path id="9" d="M228 199 C228 199 219.92 192.9292 219 193 C218.511 193.0376 214.9157 199.8876 215 200 C215.1792 200.2389 224.0449 201.191 225 201 C225.0585 200.9883 225 198 225 198 C225 198 224 213 224 213 "/>
<path id="10" d="M273 169 C273 169 273.2484 190.8949 273 194 C272.9984 194.0199 271 194 271 194 "/>
<path id="11" d="M267 169 C267 169 273.2335 158.3832 274 158 C274.1533 157.9234 277.6151 160.4281 279 163 C280.6341 166.0348 281 171 281 171 "/>
<path id="12" d="M273 197 C273 197 276.3415 193.2659 279 193 C293.1235 191.5876 313 193 313 193 "/>
<path id="13" d="M309 184 C309 184 313.8354 184.3349 316 186 C319.0811 188.3701 322.0545 193.8366 322 194 C321.9637 194.1089 316.5314 193.7388 313 195 C310.5738 195.8665 308 199 308 199 "/>
</g>
</g>
</svg>
