<?xml version="1.0" encoding="utf-8"?>
<!DOCTYPE svg PUBLIC "-//W3C//DTD SVG 1.1//EN" "http://www.w3.org/Graphics/SVG/1.1/DTD/svg11.dtd">
<svg viewBox="0 0 800 800" preserveAspectRatio="xMinYMin meet" xmlns="http://www.w3.org/2000/svg" version="1.1">
<g fill="none" stroke="black" stroke-linecap="round" stroke-linejoin="round" stroke-width="2.4194">
<g transform="translate(87.52,130.92) scale(1.24) translate(-87,-41)">
<path id="0" d="M191 151 L188 237 "/>
<path id="1" d="M217 153 C217 153 245.2678 152.2059 247 154 C248.507 155.5608 246.9816 179.9422 245 182 C243.5359 183.5204 225.676 180.1008 221 181 C220.3806 181.1191 219 184.1966 219 187 C219 207.558 218.4246 226.8984 221 231 C221.8364 232.3321 246 230 246 230 "/>
<path id="2" d="M278 172 L278 177 "/>
<path id="3" d="M279 204 L278 208 "/>
<path id="4" d="M300 152 C300 152 301.4658 163.1318 301 174 C299.9781 197.8435 298.2394 201.3429 297 222 C296.9502 222.8307 297.7328 223.9908 298 224 C304.9909 224.2411 312.1357 223.8155 326 223 C328.9938 222.8239 331.996 222.1537 332 222 C332.1288 217.1064 328.3155 203.4167 327 185 C325.8379 168.7313 328.9461 155.4825 327 152 C326.3149 150.774 308 151 308 151 "/>
<path id="5" d="M342 152 C342 152 344.4005 183.1621 344 212 C343.9196 217.7903 340.9706 223.9915 341 224 C343.5288 224.732 381.0765 224.9239 382 223 C385.1973 216.339 381.1593 156.4868 377 149 C376.055 147.2989 342 151 342 151 "/>
<path id="6" d="M118 151 L122 162 "/>
<path id="7" d="M119 151 C119 151 126.6438 150.2146 129 151 C129.7854 151.2618 131.0559 154.9565 131 155 C130.3289 155.522 120 158 120 158 "/>
<path id="8" d="M139 163 C139 163 142.9036 150.0428 143 150 C143.0099 149.9956 147.8055 158.9806 148 159 C148.1385 159.0138 152.9613 150.9871 153 151 C153.1273 151.0424 157 162 157 162 "/>
<path id="9" d="M166 155 L166 158 "/>
<path id="10" d="M100 127 C100 127 143.2151 128.6351 186 127 C221.4365 125.6457 221.5972 121.8083 257 121 C330.6439 119.3186 392.5326 113.3491 405 122 C410.7922 126.0191 406.4032 173.7343 404 223 C403.471 233.8449 400.181 234.1352 399 245 C397.7427 256.5668 399.5145 268.9057 399 269 C385.0103 271.5648 338.4914 269.1096 279 267 C268.5424 266.6292 268.4344 264.2514 258 264 C186.1879 262.2696 113 263 113 263 "/>
<path id="11" d="M101 126 C101 126 100.2886 142.2816 102 157 C102.6856 162.8962 105.7847 163.241 106 169 C107.6834 214.0308 103.925 248.5172 106 264 C106.0817 264.6099 119 266 119 266 "/>
<path id="12" d="M87 113 C87 113 90.3462 140.5405 91 168 C92.3409 224.3193 83.7929 275.6175 91 281 C104.812 291.3153 170.0067 284.5326 249 286 C331.4539 287.5317 414 287 414 287 "/>
<path id="13" d="M88 115 C88 115 125.4481 117.3054 162 116 C180.8672 115.3262 181.0742 111.565 200 111 C314.1473 107.5926 421.5834 107.8888 430 108 C430.1069 108.0014 427.6192 110.9727 427 114 C423.3272 131.9558 423.4081 132.9544 421 152 C417.9164 176.3888 417.4044 176.5642 416 201 C414.9173 219.8397 414.9988 220.3113 416 239 C416.4785 247.9316 418.346 248.0616 419 257 C419.8256 268.2837 419.9936 269.0702 419 280 C418.5562 284.8817 416 290 416 290 "/>
<path id="14" d="M88 113 C88 113 90.6529 113.7367 92 113 C146.6526 83.1118 157.8663 70.0041 216 43 C227.8592 37.4912 232.5817 39.2464 247 41 C267.785 43.5279 268.9051 48.0671 290 52 C297.4919 53.3968 298.4393 53.0081 306 52 C312.8677 51.0843 313.2495 48.1028 320 48 C407.8497 46.6622 501.0426 48.4073 503 49 C503.302 49.0915 483.7303 72.2954 462 91 C444.9937 105.6384 424 117 424 117 "/>
<path id="15" d="M503 51 C503 51 501 65.079 501 79 C501 107.3391 503.3691 113.483 503 136 C502.9738 137.6005 500.3996 138.0589 500 140 C497.3324 152.957 496.9544 155.0017 496 170 C493.4702 209.7536 497.8046 230.7815 493 250 C492.2414 253.0345 483.1512 253.4244 474 258 C458.2838 265.8581 457.6852 265.963 443 275 C438.6408 277.6826 439.3391 279.5412 435 282 C424.9682 287.6847 413 292 413 292 "/>
<path id="16" d="M343 77 C343 77 334.903 79 327 79 C295.8818 79 292.6587 75.8537 264 77 C258.4432 77.2223 253.9202 79.9198 252 82 C251.0445 83.0351 250.9764 87.7822 252 90 C252.9941 92.1538 255.5313 94.8562 258 95 C296.0856 97.2186 311.0266 97.6286 355 96 C360.0726 95.8121 362.5416 93.6603 366 91 C367.3619 89.9524 368.2465 87.2324 368 86 C367.6892 84.4461 366.1967 82.1561 364 81 C358.1596 77.9261 356.4404 77.4401 349 76 C341.4544 74.5396 333 75 333 75 "/>
<path id="17" d="M473 49 C473 49 464.4041 48.9138 460 51 C457.0584 52.3934 455.5475 54.905 454 58 C453.2263 59.5475 453.453 61.7237 454 63 C454.3594 63.8387 455.6707 64.8671 457 65 C464.0618 65.7062 467.077 66.204 474 65 C476.7267 64.5258 477.8889 63.3222 480 61 C482.375 58.3875 482.8153 57.2579 484 54 C484.5605 52.4586 484.5828 51.1657 484 50 C483.1257 48.2515 482.1217 47.0609 480 46 C475.9334 43.9667 474.3809 43.2434 470 43 C466.6006 42.8111 462 45 462 45 "/>
<path id="18" d="M472 141 C472 141 465.4658 138.4175 461 139 C455.7387 139.6863 453.0238 140.459 449 144 C442.1399 150.0369 440.9161 152.2603 436 161 C432.3983 167.4031 432.3535 168.6911 431 176 C429.9802 181.5072 429.4932 183.1447 431 188 C433.4854 196.0085 434.4558 199.0293 440 205 C445.8565 211.307 449.2068 212.825 457 216 C460.6279 217.478 462.7883 217.1793 467 216 C474.1431 213.9999 475.2794 213.2315 482 209 C488.3359 205.0108 489.8143 204.5809 494 199 C499.4524 191.7301 501.8505 189.211 503 181 C504.8932 167.477 503.5015 160.8822 501 149 C500.4396 146.3381 497.875 143.7713 495 143 C481.27 139.3163 460 138 460 138 "/>
<path id="19" d="M497 225 C497 225 513.7889 223.0373 529 225 C543.7511 226.9034 544.6397 228.1045 559 233 C566.1901 235.4512 567.1198 235.6443 573 240 C579.9359 245.1377 582.3463 246.9975 586 253 C587.8534 256.0449 587.4538 258.4621 587 263 C586.5279 267.7212 586.2769 268.5339 584 273 C573.5877 293.4242 569.2978 293.7166 561 314 C556.6154 324.7178 556.7083 329.0824 557 339 C557.1072 342.6458 558.8563 345.5112 562 348 C568.9788 353.5249 572.7897 352.417 581 358 C584.4242 360.3284 586.1668 361.7863 587 365 C588.9729 372.6099 590.5052 377.9541 588 385 C584.041 396.1348 577.8915 398.1313 571 410 C569.6995 412.2398 569.441 415.2313 570 416 C571.2241 417.6831 576.8113 417.8734 579 421 C585.4691 430.2416 586.4893 434.3473 591 446 C591.9129 448.3584 591.078 451.9532 591 452 C590.9307 452.0416 588.1793 449.1038 586 449 C570.3415 448.2544 558.9699 449.2129 549 450 C548.6887 450.0246 548.0004 452.0039 548 452 C547.9954 451.9587 544.9935 438.2201 547 432 C548.4835 427.4012 554.5844 426.7637 558 421 C561.6972 414.761 559.6661 412.4524 563 405 C568.0033 393.8161 571.1595 393.2413 575 383 C576.4492 379.1354 575.999 377.3957 575 373 C573.6876 367.2256 573.5923 364.7305 570 361 C562.4752 353.1857 558.3682 354.0761 549 346 C544.4111 342.044 544.1504 341.1552 541 336 C538.9193 332.5952 538.581 331.8731 538 328 C537.175 322.4997 536.7326 321.2507 538 316 C539.9739 307.8223 540.3255 306.45 545 299 C555.8573 281.6962 559.8027 281.8782 570 265 C573.4092 259.3572 574 255.7508 574 251 C574 248.9639 572.1228 246.5438 570 245 C567.8542 243.4394 566.4299 243.361 563 243 C557.2919 242.3991 556.4746 244.2166 551 243 C534.9311 239.4291 534.1319 235.9874 518 233 C508.2797 231.2 497 233 497 233 "/>
<path id="20" d="M556 448 L555 468 "/>
<path id="21" d="M569 452 L569 457 "/>
<path id="22" d="M579 449 L578 475 "/>
</g>
</g>
</svg>
