<?xml version="1.0" encoding="utf-8"?>
<!DOCTYPE svg PUBLIC "-//W3C//DTD SVG 1.1//EN" "http://www.w3.org/Graphics/SVG/1.1/DTD/svg11.dtd">
<svg viewBox="0 0 800 800" preserveAspectRatio="xMinYMin meet" xmlns="http://www.w3.org/2000/svg" version="1.1">
<g fill="none" stroke="black" stroke-linecap="round" stroke-linejoin="round" stroke-width="1.5745">
<g transform="translate(87.52,119.9112) scale(1.9054) translate(-138,-55)">
<path id="0" d="M262 182 C262 182 252.1813 180.5562 244 182 C236.2465 183.3683 234.8614 183.926 228 188 C219.6808 192.9395 218.7703 193.9477 212 201 C207.3019 205.8939 207.3376 206.7699 204 213 C199.9525 220.5554 199.4445 220.9332 197 229 C194.5841 236.9724 194 237.861 194 246 C194 257.969 194.1827 259.731 197 271 C198.3676 276.4704 199.5385 276.8769 203 282 C211.9304 295.217 211.2239 299.9635 222 308 C236.9962 319.1836 241.8799 319.9397 262 326 C281.9813 332.0185 284.0819 332.2787 305 333 C326.2184 333.7317 328.6097 333.7829 349 329 C367.3849 324.6875 369.4748 323.4777 386 314 C402.2215 304.6965 405.6156 302.7728 417 290 C423.8163 282.3525 423.3515 278.9456 427 268 C429.1123 261.6631 428.5507 260.9647 429 254 C429.5406 245.6201 431.0296 244.1037 429 237 C425.6059 225.1208 424.7881 221.5854 417 212 C406.9287 199.6045 404.3117 196.842 390 189 C370.0102 178.0467 366.6966 177.8275 344 172 C331.1506 168.7008 329.9049 170 316 170 C294.1495 170 293.7812 170.2435 272 172 C263.0027 172.7256 261.1401 171.8762 254 175 C247.0448 178.0429 240 186 240 186 "/>
<path id="1" d="M229 314 C229 314 222.7825 322.3542 219 331 C216.0359 337.7751 214.4558 345.4238 215 346 C216.1073 347.1724 233.4105 350.7803 236 349 C239.8544 346.3501 246.7942 324.3945 247 324 C247.0099 323.981 248 326 248 326 "/>
<path id="2" d="M380 321 C380 321 396.0036 332.2203 403 338 C403.312 338.2578 403.069 339.9828 403 340 C401.3095 340.4226 395.8942 339.2977 391 341 C385.675 342.8522 380.8382 348.449 380 348 C376.672 346.2171 363 326 363 326 "/>
<path id="3" d="M284 172 C284 172 282.271 157.9824 278 147 C275.7951 141.3302 270 136 270 136 "/>
<path id="4" d="M274 137 C274 137 281.885 146.8084 282 147 C282.0093 147.0155 279.9917 146.9717 280 147 C280.3767 148.2914 289 171 289 171 "/>
<path id="5" d="M273 138 C273 138 269.0699 137.2227 268 136 C266.6994 134.5136 266 132.43 266 130 C266 127.57 266.8941 124.9677 268 124 C269.0487 123.0823 271.7379 122.5153 274 123 C277.463 123.7421 280.4092 125.0557 282 127 C283.1794 128.4415 283.2759 132.8964 283 134 C282.9285 134.2861 280 135 280 135 "/>
<path id="6" d="M237 175 C237 175 231.3706 175.1269 227 177 C218.0287 180.8448 217.3892 181.4072 209 187 C202.6514 191.2324 201.9266 191.4308 197 197 C190.8509 203.9511 186 213 186 213 "/>
<path id="7" d="M231 172 C231 172 230.7989 167.0105 229 165 C223.7973 159.1852 221.8796 156.8482 214 153 C201.7633 147.0239 199.6718 146.2372 186 144 C173.4752 141.9505 170.1258 141.4714 159 144 C151.0584 145.8049 147.5759 148.6896 142 154 C139.157 156.7076 138.8393 159.1738 138 164 C136.9798 169.866 136.3887 171.808 138 177 C140.3293 184.5057 141.351 187.1745 147 193 C155.9788 202.2594 159.2517 204.4723 170 210 C174.2374 212.1792 182 211 182 211 "/>
<path id="8" d="M383 169 C383 169 388.2805 168.4609 392 170 C401.7005 174.014 403.0548 174.4944 412 181 C424.5466 190.1248 436 202 436 202 "/>
<path id="9" d="M390 167 C390 167 391.5858 159.7394 395 156 C400.8366 149.6075 402.6068 148.8592 411 144 C421.1643 138.1154 422.558 137.2631 433 134 C437.156 132.7012 438.6663 133.1874 443 134 C445.844 134.5332 446.4247 135.1114 449 137 C453.669 140.424 456.5049 141.0897 458 145 C461.5975 154.4088 463.1609 160.3197 462 171 C461.0474 179.764 458.4536 183.3649 453 191 C449.7278 195.5811 442 199 442 199 "/>
<path id="10" d="M200 139 C200 139 206.9775 122.5618 213 106 C214.9301 100.6922 215.4545 100.1823 216 95 C216.3806 91.3844 214.1307 89.9805 215 87 C217.0675 79.9113 218.042 77.3746 223 71 C227.7101 64.9441 229.2544 63.7217 236 60 C242.6358 56.3389 244.2074 55.7084 252 55 C270.4698 53.3209 271.7115 53.9133 291 55 C306.9379 55.8979 307.3453 55.9132 323 59 C342.5616 62.8572 342.9628 63.0331 362 69 C376.2088 73.4535 377.4658 72.9353 390 80 C404.0268 87.906 405.8199 89.1141 417 100 C423.6283 106.4539 423.7754 108.2867 428 117 C431.4852 124.1882 433 133 433 133 "/>
<path id="11" d="M142 132 C142 132 142.993 125.9985 143 126 C143.2042 126.0454 148.7129 130.1882 151 134 C152.3579 136.2632 152 141 152 141 "/>
<path id="12" d="M461 149 L466 147 "/>
<path id="13" d="M296 190 L296 197 "/>
<path id="14" d="M311 190 C311 190 309.0153 190.0306 309 190 C308.9771 189.9542 309.6304 188.0924 310 188 C311.7248 187.5688 316.4206 187.5861 317 188 C317.2956 188.2111 317.8013 191.5118 317 193 C315.1138 196.503 309.9786 200.9143 310 201 C310.0077 201.0309 319 201 319 201 "/>
<path id="15" d="M224 245 C224 245 216.6516 243.7191 213 244 C212.28 244.0554 210.989 245.9853 211 246 C211.1267 246.169 215.0835 248.3333 216 248 C217.7551 247.3618 221.9877 241.9775 222 242 C222.0766 242.1405 222.7126 251.1619 222 259 C221.7828 261.3892 220.5126 263.5899 220 264 C219.812 264.1504 217 263 217 263 "/>
<path id="16" d="M405 252 C405 252 406.0004 246.9998 406 247 C405.9993 247.0004 402.7921 251.8566 403 253 C403.2252 254.2387 406.7972 255.835 408 258 C408.6186 259.1134 408.3822 261.3631 408 262 C407.7325 262.4459 406.245 263.1383 405 263 C398.3918 262.2658 396.0415 262.0138 390 260 C388.4896 259.4965 387 257 387 257 "/>
<path id="17" d="M401 249 L408 246 "/>
<path id="18" d="M303 306 C303 306 300.0226 320.3117 301 322 C301.6932 323.1973 312.3516 325.1177 314 325 C314.1658 324.9882 315.2002 321.2002 315 321 C314.3994 320.3994 308 319 308 319 "/>
<path id="19" d="M309 255 C309 255 284.0455 242.1453 266 227 C258.1451 220.4075 258.787 215.2337 253 208 C252.3308 207.1634 250 206.9732 250 207 C250 207.3217 253 219 253 219 C253 219 250.6335 207.9318 251 205 C251.0666 204.4669 253.7396 202.8199 255 203 C258.5873 203.5125 264.7546 206.4111 265 207 C265.1778 207.4267 260.0585 215 260 215 C259.9766 215 258 207 258 207 "/>
<path id="20" d="M309 255 C309 255 308.9972 257.0014 309 257 C309.0099 256.9951 311.0124 254.0124 311 254 C310.938 253.938 306 254 306 254 "/>
<path id="21" d="M311 256 C311 256 303.3232 260.9509 298 267 C292.8002 272.9089 293.573 274.9026 289 281 C288.0634 282.2489 286.0064 283.015 286 283 C285.9192 282.8115 286 274 286 274 C286 274 285.8814 283.9635 286 284 C286.4298 284.1323 298.8939 278.0743 299 278 C299.0142 277.9901 296 277 296 277 "/>
<path id="22" d="M262 208 C262 208 249.0537 216.0239 249 216 C248.9924 215.9966 251.7873 206.4254 253 204 C253.0866 203.8268 254.9 203.825 255 204 C255.7125 205.2468 256.9992 210.9996 257 211 C257.0004 211.0002 257 205 257 205 "/>
<path id="23" d="M193 217 C193 217 189.9309 224.5531 189 232 C187.4911 244.0712 185.5177 246.2435 188 257 C192.3786 275.9741 194.1727 279.7277 204 297 C209.5382 306.7338 211.8124 308.8037 221 315 C231.5368 322.1062 233.8157 321.4362 247 326 C259.5718 330.3518 260.1264 331.8189 273 333 C313.2388 336.6916 316.1019 335.5616 356 336 C359.8335 336.0421 360.7364 335.7802 364 334 C370.9842 330.1904 370.8148 327.8689 378 324 C383.2463 321.1751 386.4888 321.8906 390 320 C390.6488 319.6506 390.1849 317.5566 391 317 C406.2585 306.5796 414.1355 304.9175 431 292 C435.3981 288.6312 435.789 286.6281 438 281 C440.9863 273.3984 442.8027 271.2246 442 264 C440.1521 247.3689 437.5998 242.6795 432 227 C431.0634 224.3776 428.1454 224.6727 427 222 C422.8306 212.2713 425.3508 205.8268 420 199 C414.1314 191.5125 409.4906 190.417 398 185 C375.1164 174.212 373.4868 169.6013 350 166 C302.6634 158.7417 293.7326 159.4793 248 162 C236.4943 162.6342 233.4924 165.929 223 173 C211.8391 180.5215 210.6159 182.5379 202 193 C197.4339 198.5446 196.9344 200.3678 195 207 C193.7941 211.1344 195.7879 212.5351 195 217 C194.4067 220.3618 192 224 192 224 "/>
</g>
</g>
</svg>
