<?xml version="1.0" encoding="utf-8"?>
<!DOCTYPE svg PUBLIC "-//W3C//DTD SVG 1.1//EN" "http://www.w3.org/Graphics/SVG/1.1/DTD/svg11.dtd">
<svg viewBox="0 0 800 800" preserveAspectRatio="xMinYMin meet" xmlns="http://www.w3.org/2000/svg" version="1.1">
<g fill="none" stroke="black" stroke-linecap="round" stroke-linejoin="round" stroke-width="1.3585">
<g transform="translate(148.2493,87.52) scale(2.2083) translate(-136,-64)">
<path id="0" d="M252 131 C252 131 248.5041 128.0012 245 127 C238.7295 125.2084 237.9604 125.3164 231 125 C216.181 124.3264 213.2058 121.8355 201 125 C189.7586 127.9144 187.6434 130.9526 177 139 C167.8128 145.9464 165.997 146.8935 160 156 C153.4947 165.8785 153.513 167.7971 150 180 C144.1721 200.2442 143.3963 201.2323 141 222 C138.9956 239.3714 140.033 240.2723 141 258 C141.5147 267.4368 140.6774 268.9559 144 277 C149.5174 290.3579 150.8161 293.7665 160 304 C166.451 311.1882 169.1717 311.2001 179 316 C190.2258 321.4824 190.8428 321.5265 203 325 C218.556 329.4446 219.1886 330.599 235 332 C257.7814 334.0186 260.0605 334.8493 282 332 C296.6102 330.1026 298.5319 328.2642 312 322 C318.8606 318.809 320.035 317.7925 325 312 C334.2927 301.1585 334.6987 299.954 342 287 C350 272.8065 352.6621 271.7262 356 257 C360.5964 236.7218 362.3925 230.9983 359 212 C355.7791 193.9631 351.7759 190.6095 341 173 C331.9348 158.1862 330.0684 156.1401 318 145 C312.2224 139.6668 310.2027 139.2968 302 137 C273.8302 129.1124 272.1032 128.4511 243 124 C230.593 122.1025 229.0878 122.6932 217 124 C211.6849 124.5746 206 128 206 128 "/>
<path id="1" d="M233 142 L234 157 "/>
<path id="2" d="M238 301 L238 313 "/>
<path id="3" d="M330 229 L349 227 "/>
<path id="4" d="M154 232 L167 232 "/>
<path id="5" d="M186 150 C186 150 188.7952 148.7952 189 149 C191.2528 151.2528 198 162 198 162 "/>
<path id="6" d="M161 187 L180 194 "/>
<path id="7" d="M299 152 L288 167 "/>
<path id="8" d="M328 182 L307 196 "/>
<path id="9" d="M176 277 L163 291 "/>
<path id="10" d="M190 293 L181 306 "/>
<path id="11" d="M287 295 L302 301 "/>
<path id="12" d="M315 270 L333 275 "/>
<path id="13" d="M240 224 C240 224 236.4834 225.0332 236 226 C234.9727 228.0545 234.2786 231.4752 235 234 C235.6947 236.4313 238.524 239.4633 240 240 C241.0837 240.3941 245.52 238.88 246 238 C246.8193 236.4979 246.6903 231.531 246 229 C245.7839 228.2075 244.3607 227.2268 243 227 C239.3261 226.3877 236.2656 226.5469 234 227 C233.6476 227.0705 232.9937 228.9972 233 229 C233.6172 229.2743 242.1856 230.5476 243 231 C243.0489 231.0271 242.0186 234 242 234 C241.9627 234 239.9272 231.1819 240 231 C240.1191 230.7023 244 229 244 229 C244.1528 229.3056 244.222 238.6448 244 239 C243.975 239.04 239.6195 237.8673 239 237 C238.444 236.2217 239 232 239 232 "/>
<path id="14" d="M247 240 C247 240 259.1608 251.8549 268 263 C269.691 265.1321 270.0045 268.997 270 269 C269.9948 269.0035 267.2264 267.2264 265 265 C257.826 257.826 257.1911 257.8796 251 250 C246.4077 244.1553 244.8699 241.0069 243 237 C242.8287 236.6328 243.9817 234.9837 244 235 C244.398 235.3538 248.3279 239.7979 252 245 C260.2829 256.7341 261.0282 259.8265 268 269 C268.6324 269.8321 271.0052 270.0074 271 270 C270.9196 269.8852 247.003 239.0055 247 239 C246.999 238.9981 254.5344 242.737 259 248 C267.7477 258.3098 275 272 275 272 "/>
<path id="15" d="M243 227 C243 227 260.6281 197.3616 277 175 C278.9429 172.3463 284.0054 170.9905 284 171 C283.9425 171.1011 244 233 244 233 C244 233 253.8312 216.008 265 201 C269.4991 194.9543 272.0053 195.8745 276 190 C279.9082 184.2526 280.3707 181.8654 282 176 C282.3871 174.6064 281 172 281 172 "/>
<path id="16" d="M157 148 C157 148 158.8275 142.7993 162 140 C174.7365 128.7619 191 118 191 118 "/>
<path id="17" d="M157 147 C157 147 151.94 141.3351 150 136 C148.3725 131.5243 149.2195 130.4886 149 125 C148.7216 118.0399 147.5693 116.0075 149 111 C149.8905 107.8831 152.416 104.6669 155 104 C163.3608 101.8424 170.8994 101.578 180 103 C182.9076 103.4543 184.7113 105.7959 187 109 C189.1103 111.9544 189.8605 115.7443 190 117 C190.013 117.1172 188 118 188 118 "/>
<path id="18" d="M317 128 C317 128 325.063 129.0991 329 132 C332.7845 134.7886 334.6442 137.2548 336 142 C338.0659 149.2307 337 160 337 160 "/>
<path id="19" d="M319 127 C319 127 318.4181 121.4337 320 119 C323.621 113.4292 326.2368 109.8816 332 107 C337.443 104.2785 343.0666 103.6718 348 105 C351.9639 106.0672 353.766 109.4132 358 114 C359.3577 115.4709 360 116.281 360 118 C360 128.3142 361.3786 133.4409 358 142 C355.3925 148.6056 350.9677 151.0269 345 156 C343.5887 157.1761 340 157 340 157 "/>
<path id="20" d="M154 104 C154 104 152.0749 105.0749 152 105 C151.0261 104.0261 146.9061 98.2206 147 97 C147.0673 96.1246 150.9264 92.4785 153 92 C154.8952 91.5626 159.086 93.086 160 94 C160.5078 94.5078 160.5988 97.4032 160 99 C159.506 100.3174 157.4886 102 157 102 C156.3486 102 153.9678 100.2098 153 99 C152.6878 98.6098 153 97 153 97 C153.0744 97 156 98.9929 156 99 C156 99 153.0064 99.0129 153 99 C152.9957 98.9914 155 97 155 97 "/>
<path id="21" d="M353 107 C353 107 352.505 100.36 353 100 C354.1403 99.1707 363.7265 98.6658 364 99 C364.3543 99.433 362.8813 109.2374 362 111 C361.8644 111.2712 358.9668 111.4834 358 111 C357.154 110.577 356.2484 109.3661 356 108 C355.4093 104.751 355.427 101.2892 356 100 C356.199 99.5524 359.9448 98.9172 360 99 C360.2317 99.3476 360.1636 105.6727 360 106 C359.9883 106.0234 357 105 357 105 C357.0107 104.9678 361.0003 103 361 103 C360.9994 103 353 105 353 105 "/>
<path id="22" d="M321 131 C321 131 325.8829 131.857 329 134 C333.1819 136.8751 333.7058 137.8073 337 142 C338.9271 144.4527 339.4306 145.1531 340 148 C340.7764 151.8822 340.0032 157.0036 340 157 C339.9919 156.9907 337.7207 146.2227 333 140 C328.0531 133.4791 318 128 318 128 "/>
<path id="23" d="M245 124 C245 124 242.4287 119.858 242 116 C241.0226 107.2038 240.9041 99.4354 242 97 C242.2913 96.3527 250.9479 95.9926 251 96 C251.0101 96.0014 249.0535 97.2249 249 98 C248.3249 107.7889 249.1609 123.9944 249 125 C248.9919 125.0507 245.0359 123.539 245 123 C244.5582 116.3732 247.2135 97.9884 247 95 C246.9978 94.9693 243 95 243 95 C243 95 258 95 258 95 C258 95 228 96 228 96 C228 96 259 96 259 96 C259 96 223 96 223 96 C223 96 263 95 263 95 C263 95 228.0158 94.0024 228 94 C227.9962 93.9994 232.6219 91.5052 237 91 C244.9634 90.0811 253.9996 91 254 91 C254.0001 91 248 90 248 90 "/>
<path id="24" d="M322 147 C322 147 329.8353 140.2635 330 140 C330.012 139.9808 327.447 138.8212 327 139 C326.4498 139.2201 325 142 325 142 C325 142 328.0144 136.0287 328 136 C327.9984 135.9968 324.4286 136.5714 323 138 C320.3469 140.6531 318 146 318 146 "/>
<path id="25" d="M172 132 C172 132 179.9986 138.9997 180 139 C180.0008 139.0002 175.9603 133.0793 176 133 C176.0347 132.9306 182.191 132.7689 183 133 C183.066 133.0189 183 135 183 135 "/>
<path id="26" d="M169 106 C169 106 172.5375 65.8024 176 64 C183.6678 60.0086 209.0304 66.919 242 68 C269.9187 68.9154 270.5611 65.8688 298 68 C321.3335 69.8123 340.4277 72.363 345 76 C346.5832 77.2593 342 103 342 103 C342 103 343.8524 94.4161 345 86 C345.3296 83.5828 345.5988 82.5968 345 81 C344.506 79.6826 343.1382 78.0495 342 78 C318.0031 76.9567 308.2106 79.7895 276 78 C264.1515 77.3417 263.9051 73.8711 252 73 C223.6255 70.9238 222.1271 74.1636 194 72 C184.1276 71.2406 173.9979 67.0003 174 67 C174.0061 66.9991 202.0148 66.6925 230 67 C247.4962 67.1923 265 68 265 68 C265 68 194 69 194 69 C194 69 212.3052 67.4779 230 69 C258.355 71.4391 258.7592 74.8743 287 77 C304.6129 78.3257 322.9698 76.0029 323 76 C323.004 75.9996 320.3673 74.0877 318 74 C282.5243 72.6861 242 73 242 73 C242 73 326 73 326 73 C326 73 288.9134 74.0183 252 73 C216.5281 72.0215 200.8377 66.9911 181 69 C178.4105 69.2622 175.1289 75.0003 173 81 C170.1213 89.1127 169.9991 100.0013 170 100 C170.002 99.9973 184 66 184 66 C184 66 176.4375 79.797 172 92 C170.977 94.8133 172 99 172 99 "/>
<path id="27" d="M162 308 C162 308 136.2516 328.4283 136 329 C135.9798 329.0458 148.0008 333.1666 151 333 C151.6652 332.963 152.057 329.6192 154 328 C163.0825 320.4313 175 313 175 313 "/>
<path id="28" d="M296 330 C296 330 321.2564 346.4589 323 347 C323.0261 347.0081 325.8028 340.6056 325 339 C322.9357 334.8713 318.6503 331.5909 313 327 C311.7498 325.9842 309 326 309 326 "/>
</g>
</g>
</svg>
