<?xml version="1.0" encoding="utf-8"?>
<!DOCTYPE svg PUBLIC "-//W3C//DTD SVG 1.1//EN" "http://www.w3.org/Graphics/SVG/1.1/DTD/svg11.dtd">
<svg viewBox="0 0 800 800" preserveAspectRatio="xMinYMin meet" xmlns="http://www.w3.org/2000/svg" version="1.1">
<g fill="none" stroke="black" stroke-linecap="round" stroke-linejoin="round" stroke-width="1.6129">
<g transform="translate(87.52,291.19) scale(1.86) translate(-158,-146)">
<path id="0" d="M166 176 C166 176 162.1405 182.1074 161 188 C159.3119 196.7217 160.7834 201.7774 160 207 C159.9468 207.3545 158.0172 207.7084 158 208 C157.4935 216.6097 154.8157 237.8157 158 241 C163.3071 246.3071 180.2081 248.9593 202 252 C222.167 254.814 223.3781 251.2068 244 253 C257.4426 254.1689 257.6092 257.4249 271 258 C337.9603 260.8756 383.9019 264.3919 407 260 C408.961 259.6271 412.2338 245.1741 413 231 C414.1729 209.3013 414.6643 193.0468 411 186 C409.6088 183.3245 398.808 181.328 387 181 C310.6898 178.8803 271.8347 181.5202 231 181 C230.7316 180.9966 230.2892 179.0126 230 179 C211.8962 178.2129 162.0092 178.0035 162 178 C161.9953 177.9982 181.8356 173.8967 201 168 C233.6881 157.9421 234.4487 149.2897 266 146 C334.4534 138.8627 340.2681 142.4664 412 146 C440.247 147.3915 441.1171 150.4234 469 156 C473.0643 156.8129 474.1262 156.7648 477 159 C482.1605 163.0137 483.9029 164.1701 487 170 C491.6932 178.8342 492.3713 180.7624 494 191 C495.694 201.6479 496.3254 206.3263 494 214 C492.6826 218.3474 488.729 220.532 484 224 C482.4358 225.1471 480.8611 223.8547 479 225 C468.9809 231.1656 468.2943 234.1666 458 240 C454.4639 242.0038 452.5995 240.1145 449 242 C443.0122 245.1365 443.2954 247.8523 437 251 C428.0339 255.4831 425.9779 253.8563 417 258 C413.7894 259.4818 411.1117 262.9628 411 263 C410.9854 263.0049 411 260 411 260 "/>
<path id="1" d="M195 201 C195 201 195.9417 211.955 195 222 C194.4941 227.3962 192 233 192 233 "/>
<path id="2" d="M218 203 C218 203 213.0417 229.0834 214 231 C214.3317 231.6634 231.0585 232.3001 232 231 C234.2515 227.8907 235.6336 203.7108 235 202 C234.936 201.8273 222 204 222 204 "/>
<path id="3" d="M253 204 C253 204 252.7414 209.8383 253 210 C253.5087 210.3179 259.1939 209.8027 261 209 C261.4991 208.7782 262.0584 206.0584 262 206 C261.8831 205.8831 258.4 205.8 258 206 C257.9 206.05 258 208 258 208 "/>
<path id="4" d="M254 225 C254 225 254.3551 231.5486 255 232 C255.9837 232.6886 262.9875 232.3375 264 232 C264.1125 231.9625 264.15 229.075 264 229 C263.4 228.7 258 229 258 229 "/>
<path id="5" d="M280 206 C280 206 276.721 232.6819 278 235 C278.4553 235.8252 295.4822 235.9811 296 235 C297.9909 231.2277 297.7614 201.5889 297 199 C296.9737 198.9104 286 201 286 201 "/>
<path id="6" d="M310 205 C310 205 308.4053 230.824 310 238 C310.2309 239.0389 314.1308 240.4724 318 241 C324.4416 241.8784 331.7407 241.6711 332 241 C334.1647 235.3974 336.0731 198.9417 335 197 C334.8159 196.6669 315.5159 201.4947 311 203 C310.8842 203.0386 311 205 311 205 "/>
<path id="7" d="M353 210 L371 211 "/>
<path id="8" d="M356 228 L388 230 "/>
</g>
</g>
</svg>
